<svg aria-hidden="true" style="position:absolute;width:0;height:0" xmlns="http://www.w3.org/2000/svg" overflow="hidden"><defs><symbol id="icon-customer-support" viewBox="0 0 32 32"><path fill="var(--color1, #f6ccaf)" d="M21.333 12.666a5.333 5.333 0 01-10.666 0V8.599a3.347 3.347 0 002.338-1.826l.009-.02a2.67 2.67 0 001.654.58c3.333 0 4.666.253 6.227-1.013.586.713.44.887.44 6.346z"/><path fill="var(--color2, #ffdec7)" d="M21.333 12.666a5.327 5.327 0 01-2.283 4.375l-.017.011a5.334 5.334 0 01-7.034-5.053v-4a3.274 3.274 0 001.005-1.221l.008-.02c.45.357 1.026.573 1.652.573h.002c3.267 0 4.526.233 6.04-.88a.942.942 0 00.233-.073c.526.68.393.82.393 6.286z"/><path fill="var(--color1, #f6ccaf)" d="M20.94 6.38a.887.887 0 01-.227.072l-.006.001c.206-.126.167-.173.233-.073zM12.114 7.9c-.134.134-.114.1-.114.034a.308.308 0 00.115-.034l-.002.001z"/><path fill="var(--color3, #374f68)" d="M24 11c0 .921-.746 1.667-1.667 1.667h-1V9.333h1.007c.917 0 1.66.743 1.66 1.66v.008zM10.667 9.333v3.333h-1a1.674 1.674 0 01-1.18-2.846c.627-.627 1.36-.487 2.18-.487z"/><path fill="var(--color3, #374f68)" d="M22 16h-5.333a.667.667 0 010-1.334H22a.667.667 0 00.667-.666v-1.667a.667.667 0 011.334-.001V14a2 2 0 01-2 2z"/><path fill="var(--color3, #374f68)" d="M16.667 16.666h-1.334a1.333 1.333 0 010-2.666h1.334a1.333 1.333 0 010 2.666z"/><path fill="var(--color4, #425b72)" d="M17.82 16h-1.153a1.334 1.334 0 01-1.15-2.007l-.003.006h1.154a1.333 1.333 0 011.149 2.007L17.82 16z"/><path fill="var(--color5, #edebf2)" d="M26.667 31.333H18c-.467-2.347-1.067-5.333-1.333-6.666l.666-1.334L18 24l2.407-3.334c2.912.459 5.176 2.75 5.589 5.638l.004.036c.58 4.327.427 3.213.667 4.993z"/><path fill="var(--color6, #6fabe6)" d="M20.407 20.667L18 24l-2-2 2-1.714 2.407.38z"/><path fill="var(--color7, #dad7e5)" d="M15.333 24.666L14 31.333H5.333L6 26.34c.417-2.924 2.681-5.215 5.556-5.668l.038-.005L14.001 24l.667-.667.666 1.334z"/><path fill="var(--color7, #dad7e5)" d="M15.333 24.666L14.267 30H7.333c.667-4.846.54-6.893 2.667-8.907a6.515 6.515 0 011.593-.427L14 24l.667-.667.666 1.334z"/><path fill="var(--color5, #edebf2)" d="M15.333 24.666L14.267 30h-3.911a2.665 2.665 0 01-2.64-3.034l-.002.014c.28-2.067.313-4.04 2.246-5.887a6.266 6.266 0 011.601-.423l.033-.003 2.407 3.334.667-.667.666 1.334z"/><path fill="var(--color6, #6fabe6)" d="M16 22l-2 2-2.407-3.334c.087 0 2.28-.326 2.407-.346L16 22z"/><path fill="var(--color8, #82bcf4)" d="M16 22a1.59 1.59 0 01-2.424-.196l-.003-.005-.947-1.333 1.373-.18 2 1.714zm0 0a1.59 1.59 0 002.424-.196l.003-.005.947-1.333-1.373-.18-2 1.714z"/><path fill="var(--color1, #f6ccaf)" d="M18 17.613v2.666l-2 1.72-2-1.714v-2.666a5.386 5.386 0 004-.007z"/><path fill="var(--color2, #ffdec7)" d="M18 17.613v2.666l-1.333 1.141c-1.18-1.007-1.334-2.12-1.334-3.474A5.337 5.337 0 0018 17.613z"/><path fill="var(--color9, #a87e6b)" d="M22.667.667c0 2.12.26 4.06-1.773 5.653-1.56 1.26-2.893 1.013-6.227 1.013A2.667 2.667 0 0112.3 3.445l-.007.015C13.84.366 18.259 3.593 22.667.667z"/><path fill="var(--color10, #be927c)" d="M22.667.667c0 2.12.26 4.06-1.773 5.653a3.022 3.022 0 01-1.56.346c-3.226 0-4 .194-4.986-.58a2.665 2.665 0 01-.149-4.044l.002-.002c1.646-.3 5.521.686 8.467-1.373z"/><path fill="var(--color9, #a87e6b)" d="M13.013 6.753A3.34 3.34 0 0110 8.666c0-3.706-.22-4.333.667-5a1.643 1.643 0 011.637-.202l-.011-.004a2.663 2.663 0 00.714 3.289l.005.004z"/><path fill="var(--color10, #be927c)" d="M12.793 6.56a1.334 1.334 0 01-2.127-1.073v-.015.001-1.806a1.643 1.643 0 011.637-.202l-.011-.004c-.177.35-.281.763-.281 1.2 0 .741.299 1.412.782 1.9z"/><path fill="var(--color11, #db5669)" d="M17.333 23.333l-.666 1.334h-1.334l-.666-1.334L16 22l1.333 1.333z"/><path fill="var(--color12, #f26674)" d="M17.333 23.333L17 24c-.94 0-1.293-.587-1.667-1.333L16 22l1.333 1.333z"/><path fill="var(--color11, #db5669)" d="M18 31.333h-4l1.333-6.666h1.334L18 31.333z"/><path fill="var(--color12, #f26674)" d="M18 31.333a2.733 2.733 0 01-2.663-3.284l-.003.018.667-3.4h.667l1.333 6.666z"/><path fill="var(--color4, #425b72)" d="M10.667 9.333v2h-.34a1.66 1.66 0 01-1.66-1.66v-.008c.527-.399.947-.333 2.001-.333zm10.666 0v2h.34a1.66 1.66 0 001.66-1.66v-.008c-.527-.399-.947-.333-2.001-.333z"/><path fill="var(--color7, #dad7e5)" d="M26.667 31.333H18L17.733 30h8.754l.18 1.333z"/></symbol><symbol id="icon-ellipse" viewBox="0 0 32 32"><path fill="none" stroke="var(--color13, #4141e4)" stroke-width="9.143" d="M27.429 16c0 6.312-5.117 11.429-11.429 11.429S4.571 22.312 4.571 16 9.688 4.571 16 4.571 27.429 9.688 27.429 16z"/></symbol><symbol id="icon-folders" viewBox="0 0 42 32"><path fill="var(--color14, #e0a02f)" d="M0 5.085h21.895V3.237H8.333L7.236 2.151H1.314L.001 3.465v1.62z"/><path fill="var(--color15, #ffcc67)" d="M21.895 5.085H0v14.658h21.895V5.085z"/><path fill="var(--color14, #e0a02f)" opacity=".5" d="M21.895 19.205H0v.538h21.895v-.538z"/><path fill="var(--color14, #e0a02f)" opacity=".3" d="M12.944 7.052H2.626v.684h10.317v-.684z"/><path fill="var(--color16, #fff)" d="M21.01 4.162H.886v.923H21.01v-.923zm-8.413 2.544H2.279v.684h10.317v-.684z"/><path fill="var(--color14, #e0a02f)" d="M6.737 8.453h21.894V6.605H15.07L13.972 5.52H8.05L6.736 6.834v1.62z"/><path fill="var(--color17, #fbb835)" d="M28.632 8.453H6.737v14.658h21.894V8.453z"/><path fill="var(--color14, #e0a02f)" opacity=".5" d="M28.632 22.574H6.737v.538h21.894v-.538z"/><path fill="var(--color14, #e0a02f)" opacity=".3" d="M19.681 10.421H9.364v.684h10.317v-.684z"/><path fill="var(--color16, #fff)" d="M27.746 7.53H7.622v.923h20.124V7.53zm-8.412 2.545H9.015v.684h10.319v-.684z"/><path fill="var(--color14, #e0a02f)" d="M13.474 11.821h21.895V9.974H21.807L20.71 8.888h-5.922l-1.314 1.314v1.619z"/><path fill="var(--color15, #ffcc67)" d="M35.368 11.821H13.474v14.658h21.894V11.821z"/><path fill="var(--color14, #e0a02f)" opacity=".5" d="M35.368 25.942H13.474v.538h21.894v-.538z"/><path fill="var(--color14, #e0a02f)" opacity=".3" d="M26.418 13.789H16.101v.684h10.317v-.684z"/><path fill="var(--color16, #fff)" d="M34.483 10.899H14.359v.923h20.124v-.923zm-8.412 2.544H15.754v.684h10.317v-.684z"/><path fill="var(--color14, #e0a02f)" d="M20.211 15.19h21.894v-1.847H28.544l-1.098-1.085h-5.922l-1.314 1.314v1.62z"/><path fill="var(--color17, #fbb835)" d="M42.105 15.19H20.21v14.658h21.894V15.19z"/><path fill="var(--color14, #e0a02f)" opacity=".5" d="M42.105 29.311H20.21v.538h21.894v-.538z"/><path fill="var(--color14, #e0a02f)" opacity=".3" d="M33.155 17.158H22.837v.684h10.317v-.684z"/><path fill="var(--color16, #fff)" d="M41.22 14.267H21.096v.923H41.22v-.923zm-8.412 2.544H22.49v.684h10.317v-.684z"/></symbol><symbol id="icon-suitcase" viewBox="0 0 32 32"><path fill="var(--color18, #e8834d)" d="M21.052 3.426c-.052-.04-.533-.397-1.39-.742-1.104-.444-2.371-.678-3.662-.678s-2.559.234-3.663.678c-.857.344-1.338.702-1.39.742a1.05 1.05 0 00-.414.836v1.65l1.052.563 1.052-.563V4.858c.577-.294 1.731-.748 3.363-.748s2.786.454 3.363.748v1.054l1.052.563 1.052-.563v-1.65c0-.328-.153-.637-.414-.836z"/><path fill="var(--color19, #d66e41)" d="M10.533 5.912v1.161l1.052.563 1.052-.563V5.912h-2.104zm10.933 0h-2.103v1.161l1.052.563 1.052-.563V5.912z"/><path fill="var(--color20, #365e7d)" d="M.828 18.643v9.343c0 1.109.899 2.008 2.008 2.008h26.328a2.009 2.009 0 002.008-2.008v-9.344H.829z"/><path fill="var(--color21, #2b4d66)" d="M.828 17.481v1.161C2.497 19.968 6.906 22.539 16 22.539s13.503-2.572 15.172-3.897v-1.161H.828z"/><path fill="var(--color22, #407093)" d="M.741 16.813C2.34 18.115 6.744 20.779 16 20.779s13.66-2.665 15.259-3.966c.469-.382.741-1.516.741-2.121V9.081a2.008 2.008 0 00-2.008-2.008H2.008A2.008 2.008 0 000 9.081v5.611c0 .604.272 1.739.741 2.12z"/><path fill="var(--color20, #365e7d)" d="M31.259 16.25C29.66 17.552 25.256 20.216 16 20.216S2.34 17.551.741 16.25A2.008 2.008 0 010 14.692v1.161c0 .604.272 1.176.741 1.558C2.34 18.713 6.744 21.377 16 21.377s13.66-2.665 15.259-3.966c.453-.371.741-.931.741-1.558v-1.161a2.01 2.01 0 01-.741 1.558z"/><path fill="var(--color23, #ffe27a)" d="M16 23.311c1.039 0 1.881-.772 1.881-2.444v-1.141a.67.67 0 00-.67-.669h-2.423a.668.668 0 00-.669.669v1.141c0 1.672.842 2.444 1.881 2.444z"/><path fill="var(--color24, #f9cf58)" d="M16 22.748a1.88 1.88 0 01-1.881-1.881v1.161a1.88 1.88 0 103.762 0v-1.161A1.88 1.88 0 0116 22.748z"/></symbol></defs></svg>