<svg aria-hidden="true" style="position:absolute;width:0;height:0" xmlns="http://www.w3.org/2000/svg" overflow="hidden"><defs><symbol id="icon-daily-tasks" viewBox="0 0 32 32"><path fill="var(--color1, #00c9ff)" d="M1.362 0h29.255v4.41H1.361V0z"/><path fill="var(--color2, #00c0ed)" d="M3.667 1.258h26.95V0H1.362v4.41h1.327V2.236c0-.54.438-.978.978-.978z"/><path fill="var(--color3, #eee)" d="M1.362 4.41h29.255v17.21H1.361V4.41z"/><path fill="var(--color4, #e0e0e0)" d="M3.596 5.668h27.02V4.41H1.361v17.21h1.257V6.645c0-.54.438-.978.978-.978z"/><path fill="var(--color3, #eee)" d="M27.875 3.047h.019a.768.768 0 000-1.536h-.021.001a.769.769 0 00-.001 1.536h.001zm-3.497 0h.02a.768.768 0 000-1.536h-.021.001a.769.769 0 00-.001 1.536h.001z"/><path fill="var(--color5, #fff)" d="M21.549 2.62h-6.648a.342.342 0 110-.684h.014-.001 6.635a.342.342 0 110 .684z"/><path fill="var(--color6, #f78131)" d="M8.596 7.563h18.666V21.62H8.597V7.563z"/><path fill="var(--color7, #e0752d)" d="M4.717 7.563h3.879V21.62H4.717V7.563z"/><path fill="var(--color5, #fff)" d="M23.509 11.46H12.297a.342.342 0 110-.684h.014-.001 11.199a.342.342 0 110 .684zm0 3.487H12.31a.342.342 0 110-.684h11.199a.342.342 0 110 .684zm0 3.487H12.31a.342.342 0 01-.001-.684h11.213a.342.342 0 110 .684h-.014.001zm-16.83-6.709h.018a.618.618 0 000-1.236h-.018.001a.618.618 0 00-.001 1.236zm0 3.557a.618.618 0 00.001-1.236.618.618 0 00-.001 1.236zm0 3.487a.618.618 0 00.001-1.236.618.618 0 00-.001 1.236z"/><path fill="var(--color8, #4c4c4c)" d="M31.413 21.347v-3.258a3.958 3.958 0 00-3.168-3.876l-.025-.004c-2.828-1.698-6.427.337-6.427 3.633v3.505a2.49 2.49 0 002.49 2.489h4.64a2.49 2.49 0 002.49-2.489z"/><path fill="var(--color9, #ea2f2f)" d="M28.465 24.485v-3.276h-4.017v3.276l-1.645.631a2.496 2.496 0 00-1.599 2.324v4.497H32v-4.445a2.49 2.49 0 00-1.646-2.342l-.017-.005-1.872-.66z"/><path fill="var(--color10, #cc2929)" d="M22.322 28.14a2.49 2.49 0 011.581-2.318l.017-.006 1.645-.631v-3.276h2.899v-.698h-4.017v3.276l-1.645.631a2.496 2.496 0 00-1.599 2.324v4.497h1.117v-3.798z"/><path fill="var(--color11, #f9b995)" d="M28.481 24.491l-.017-.006v-3.276h-4.017v3.194l1.83 2.563-.002 2.485a.342.342 0 10.684 0l.002-2.55 1.519-2.411z"/><path fill="var(--color12, #fdd2b5)" d="M26.602 23.371c1.775 0 3.213-1.684 3.213-3.761s-1.439-3.76-3.213-3.76c-1.775 0-3.214 1.684-3.214 3.76s1.439 3.761 3.214 3.761z"/><path fill="var(--color13, #3a3a3a)" d="M28.22 14.208c-2.828-1.698-6.427.337-6.427 3.633v1.197l.899-.163a6.844 6.844 0 004.251-2.634l.013-.018a49.512 49.512 0 004.412 4.514l.045.04v-2.688a3.958 3.958 0 00-3.168-3.876l-.025-.004z"/><path fill="var(--color14, #5c6bc0)" d="M13.34 32H1.199L0 23.258h14.539L13.34 32z"/><path fill="var(--color15, #4057a0)" d="M1.397 24.515h12.97l.172-1.258H0l1.199 8.742h1.224l-1.026-7.485z"/><path fill="var(--color5, #fff)" d="M8.139 27.97H6.4a.342.342 0 01-.001-.684h1.74a.342.342 0 110 .684zm3.327.277c.419 0 .759-.532.759-1.189s-.34-1.189-.759-1.189-.759.532-.759 1.19c0 .657.34 1.189.759 1.189zM9.889 29.61c.021.43-.197.767-.487.755s-.542-.373-.563-.803c-.021-.43.197-.767.488-.755s.541.372.563.802z"/></symbol><symbol id="icon-document" viewBox="0 0 32 32"><path fill="var(--color16, #707487)" d="M25.998 3.594h-4.574v.752a.78.78 0 01-.777.777h-9.294a.78.78 0 01-.777-.777v-.752H6.002a1.75 1.75 0 00-1.748 1.748v24.909A1.75 1.75 0 006.002 32h19.996a1.75 1.75 0 001.748-1.749V5.342a1.75 1.75 0 00-1.748-1.748z"/><path fill="var(--color17, #5b5d6e)" d="M5.541 30.251V5.342a1.75 1.75 0 011.748-1.748H6.002a1.75 1.75 0 00-1.748 1.748v24.909A1.75 1.75 0 006.002 32H7.29a1.75 1.75 0 01-1.748-1.749z"/><path fill="var(--color18, #e4eaf8)" d="M25.249 30.012H6.751a.422.422 0 01-.421-.421V7.37c0-.233.189-.421.421-.421h18.498c.233 0 .421.189.421.421v22.221a.421.421 0 01-.421.421h-.001z"/><path fill="var(--color19, #d8dce5)" d="M7.661 29.578V7.383c0-.24.194-.434.434-.434h-1.33a.433.433 0 00-.434.433v22.196c0 .24.194.434.434.434h1.33a.434.434 0 01-.434-.434z"/><path fill="var(--color20, #ffc850)" d="M19.405 9.258h-6.81a1.067 1.067 0 01-1.065-1.065V4.865a.483.483 0 01.966 0v3.328a.1.1 0 00.1.1h6.809a.1.1 0 00.1-.1V4.866a.483.483 0 11.966 0v3.327a1.068 1.068 0 01-1.066 1.066z"/><path fill="var(--color19, #d8dce5)" d="M17.538 2.045V.777A.78.78 0 0016.761 0h-1.523a.78.78 0 00-.777.777v1.268h3.078z"/><path fill="var(--color21, #c3c8d1)" d="M16.55 0h-1.312a.78.78 0 00-.777.777v1.268h1.312V.777A.78.78 0 0116.55 0z"/><path fill="var(--color18, #e4eaf8)" d="M20.651 2.013h-9.303a.806.806 0 00-.805.805V4.35c0 .444.361.805.805.805h9.303a.806.806 0 00.805-.805V2.818a.806.806 0 00-.805-.805z"/><path fill="var(--color19, #d8dce5)" d="M20.651 3.867h-9.303a.806.806 0 01-.805-.805V4.35c0 .444.361.805.805.805h9.303a.806.806 0 00.805-.805V3.062a.806.806 0 01-.805.805z"/><path fill="var(--color22, #00c3ff)" d="M10.613 15.107h-.005a.733.733 0 01-.527-.227l-1.303-1.364a.734.734 0 01.532-1.244.73.73 0 01.531.227l.778.815 1.93-1.969a.735.735 0 111.049 1.03l-2.462 2.51a.734.734 0 01-.525.221zm0 5.698h-.005a.733.733 0 01-.527-.227l-1.303-1.364a.734.734 0 111.062-1.016l.778.814 1.93-1.968a.735.735 0 111.049 1.03l-2.461 2.511a.738.738 0 01-.525.221zm0 5.7h-.005a.733.733 0 01-.527-.227l-1.303-1.363a.734.734 0 111.062-1.016l.778.814 1.93-1.968a.735.735 0 111.049 1.03l-2.462 2.51a.732.732 0 01-.525.221z"/><path fill="var(--color23, #06b0f2)" d="M11.048 14.544L9.745 13.18a.733.733 0 01-.122-.845l-.002.004a.735.735 0 00-.842 1.175l1.303 1.364a.733.733 0 00.527.227h.005a.737.737 0 00.525-.22l.165-.168a.752.752 0 01-.256-.173zm-.001 5.7l-1.303-1.363a.733.733 0 01-.122-.845l-.002.004a.735.735 0 00-.841 1.174l1.303 1.364c.133.139.32.226.527.227h.006a.73.73 0 00.524-.22l.165-.169a.752.752 0 01-.256-.173zm0 5.699L9.744 24.58a.733.733 0 01-.122-.845l-.002.004a.735.735 0 00-.842 1.175l1.303 1.363c.133.139.32.226.527.227h.005a.733.733 0 00.525-.22l.165-.169a.752.752 0 01-.256-.173z"/><path fill="var(--color21, #c3c8d1)" d="M23.1 13.598H16a.483.483 0 110-.966h7.1a.483.483 0 110 .966zm0 5.861H16a.483.483 0 110-.966h7.1a.483.483 0 110 .966zm0 5.86H16a.483.483 0 010-.966h7.101a.483.483 0 010 .966H23.1z"/></symbol><symbol id="icon-employee" viewBox="0 0 32 32"><path fill="var(--color24, #5c414b)" d="M22.71 8.774V6.899c0-3.613-2.777-6.722-6.386-6.891A6.71 6.71 0 009.29 6.71v2.065c0 3.474-.577 5.504-.869 6.307a.51.51 0 00.24.623l.003.001c1.028.547 3.831 1.947 6.303 2.359h2.065c2.473-.412 5.275-1.812 6.303-2.359a.512.512 0 00.242-.628l.001.004c-.292-.803-.869-2.834-.869-6.307z"/><path fill="var(--color25, #503441)" d="M9.29 6.71v2.065c0 3.474-.577 5.503-.868 6.307a.511.511 0 00.242.624l.003.001c.959.51 3.451 1.755 5.785 2.257V7.742L13.42 6.71c-1.717-1.717-1.833-3.885-1.72-5.148a6.685 6.685 0 00-2.409 5.143v.006z"/><path fill="var(--color26, #e6af78)" d="M18.581 14.452H13.42v6.71h5.161v-6.71z"/><path fill="var(--color27, #ffdc64)" d="M23.452 19.286l-2.748-1.222-3.672 1.548-.603.904a.517.517 0 01-.857.002l-.001-.002-.603-.904-3.615-1.548-2.748 1.222a3.103 3.103 0 00-1.838 2.92v-.004L7.038 32h17.98l.271-9.798.001-.085a3.098 3.098 0 00-1.819-2.822l-.019-.008z"/><path fill="var(--color28, #fff082)" d="M10.219 23.226l-2.593-3.241a3.079 3.079 0 00-.859 2.221v-.004L7.038 32h3.181v-8.774zm11.618 0l2.593-3.241c.532.554.86 1.308.86 2.139l-.001.082v-.004L25.018 32h-3.18v-8.774z"/><path fill="var(--color29, #d29b6e)" d="M13.419 15.951c.757.357 1.645.565 2.581.565s1.824-.208 2.618-.581l-.038.016v-1.499h-5.161v1.499z"/><path fill="var(--color30, #f0c087)" d="M20.889 11.95a4.55 4.55 0 00.219-1.285v-.006c.076-2.97-4.084-2.275-7.502-4.524a.52.52 0 00-.718.127 11.007 11.007 0 01-1.504 1.716l-.007.007c-.191.175-.44.273-.7.273h-.372a.955.955 0 00-.174.019c-.502.097-.84.578-.84 1.089v.374c0 .494.316.96.797 1.072.108.025.214.032.315.024a.501.501 0 01.526.42 5.15 5.15 0 009.959.696z"/><path fill="var(--color26, #e6af78)" d="M12.903 10.323V6.244a10.885 10.885 0 01-1.527 1.742 1.03 1.03 0 01-.699.273h-.373a.944.944 0 00-.173.019c-.502.097-.841.577-.841 1.089v.374c0 .494.316.96.797 1.072.108.025.214.032.315.024a.501.501 0 01.526.42 5.157 5.157 0 005.071 4.229c.351 0 .692-.038 1.023-.105a5.163 5.163 0 01-4.12-5.056z"/><path fill="var(--color31, #c39772)" d="M27.355 32H4.645a.516.516 0 110-1.032h22.71a.516.516 0 110 1.032z"/><path fill="var(--color28, #fff082)" d="M12.35 20.055l-.995-1.99 1.122-.958a.515.515 0 01.754.089l.001.002 1.737 2.415-1.075.806a1.034 1.034 0 01-1.54-.359l-.003-.006zm7.3 0l.995-1.99-1.122-.958a.515.515 0 00-.754.089l-.001.002-1.737 2.415 1.075.806a1.034 1.034 0 001.54-.359l.003-.006z"/><path fill="var(--color32, #dbd9dc)" d="M21.736 30.968H10.263c-.549 0-.998-.428-1.03-.969v-.003l-.395-6.71a1.032 1.032 0 011.03-1.092H22.13a1.032 1.032 0 011.03 1.095v-.003l-.394 6.71a1.033 1.033 0 01-1.03.972z"/><path fill="var(--color5, #fff)" d="M16 28.129a1.29 1.29 0 100-2.58 1.29 1.29 0 100 2.58z"/></symbol><symbol id="icon-interview" viewBox="0 0 32 32"><path fill="var(--color33, #ffc269)" d="M4.572 8.889a3.047 3.047 0 100-6.094 3.047 3.047 0 100 6.094z"/><path fill="var(--color34, #ffa95f)" d="M13.19 9.905c0-3.086-1.977-5.588-5.063-5.588h-.008a5.552 5.552 0 00-3.877 1.571l.001-.001s-.556 1.931-.556 3.508c0 2.54 1.353 4.572 4.439 4.572s5.063-1.524 5.063-4.063z"/><path fill="var(--color35, #ff8b5a)" d="M6.095 7.873c-.682-.425-1.413-1.033-1.851-1.985A5.553 5.553 0 002.54 9.897v.008c0 2.526 2.475 4.045 5.538 4.062L6.095 7.873z"/><path fill="var(--color36, #95d6a4)" d="M9.651 17.016H6.095a4.064 4.064 0 00-4.064 4.064v6.603H12.19v-8.127a2.54 2.54 0 00-2.54-2.54z"/><path fill="var(--color37, #78c2a4)" d="M6.095 17.016h-.508a4.064 4.064 0 00-4.064 4.064v6.603h1.016v-6.602a3.047 3.047 0 013.048-3.047h.508v-1.015z"/><path fill="var(--color38, #f7d291)" d="M7.619 19.047a2.031 2.031 0 01-2.031-2.032v-.677l4.063.436v.24c0 1.122-.91 2.032-2.031 2.032h-.001z"/><path fill="var(--color39, #ecbd83)" d="M5.588 16.339a4.984 4.984 0 002.524.677c.55 0 1.08-.088 1.575-.251l-.036.01v-2.3H5.587v1.863z"/><path fill="var(--color40, #eceaec)" d="M14.223 26.75h-8.66a1.016 1.016 0 01-1.016-1.016v-4.655l.533-1.015h9.143c.562 0 1.016.455 1.016 1.016v5.079l-1.015.591z"/><path fill="var(--color41, #dad8db)" d="M5.08 20.064c-.561 0-1.016.455-1.016 1.016v5.079c0 .561.455 1.015 1.016 1.015h9.143c.562 0 1.016-.455 1.016-1.015H6.604a1.525 1.525 0 01-1.524-1.524v-4.572z"/><path fill="var(--color42, #ffe1a0)" d="M6.078 7.873C7.693 9.018 10 9.389 11.262 9.509c.514.052.912.483.912 1.006v1.422a4.066 4.066 0 01-3.515 4.028l-.021.002c-.172.022-.428-.005-.606-.005-2.245 0-3.579-1.78-3.579-4.024v-.001c0-1.072-.039-2.107.627-2.941.061-.076.122-.153.188-.226l.811-.895z"/><path fill="var(--color38, #f7d291)" d="M5.08 11.937V8.995a3.909 3.909 0 00-1.016 2.635v.307A4.063 4.063 0 008.128 16c.172 0 .344-.013.511-.034a4.065 4.065 0 01-3.558-4.03z"/><path fill="var(--color5, #fff)" d="M9.651 24.635a1.016 1.016 0 000-2.032 1.016 1.016 0 000 2.032zm-1.033-10.46c-.436 0-.86-.087-1.224-.252a.51.51 0 11.42-.924l-.003-.001c.47.211 1.145.211 1.615 0a.507.507 0 01.42.925l-.003.001a2.953 2.953 0 01-1.203.251h-.023.001z"/><path fill="var(--color37, #78c2a4)" d="M7.111 11.682h.016a.507.507 0 100-1.016H7.11h.001a.508.508 0 00-.001 1.016h.001zm3.048 0h.016a.507.507 0 100-1.016h-.017.001a.508.508 0 00-.001 1.016h.001z"/><path fill="var(--color39, #ecbd83)" d="M18.285 27.175H.485a.507.507 0 100 1.016l.024-.001H.508h17.777v-1.015z"/><path fill="var(--color43, #c3ddff)" d="M29.353 16.962L27.43 16l-2.523-.396-3.572.396-2.941 1.47a2.04 2.04 0 00-.705.583l-.004.005.602 9.255h12.191v-8.535c0-.77-.435-1.473-1.123-1.817z"/><path fill="var(--color44, #a4ccff)" d="M20.825 21.792c0-.8-.37-1.514-.948-1.979l-.005-.004-2.188-1.751a2.02 2.02 0 00-.415 1.229v8.903c0 .561.455 1.016 1.016 1.016h2.54v-7.414z"/><path fill="var(--color45, #9b959d)" d="M29.968 22.095h-6.096c-1.122 0-2.613.671-2.842 2.093l.81 5.019h9.143c.561 0 1.016-.455 1.016-1.016v-4.064a2.031 2.031 0 00-2.031-2.032z"/><path fill="var(--color46, #857e87)" d="M23.873 22.095h-1.016c-1.122 0-2.032.91-2.032 2.032v5.079h1.015v-5.08c0-1.122.91-2.032 2.032-2.032h.001z"/><path fill="var(--color47, #f5b97d)" d="M21.841 13.938v1.495a.507.507 0 01-.28.454l-.227.113h6.096l-.455-.227a1.018 1.018 0 01-.561-.908l-.001-8.515h-7.225v4.064c0 1.893.902 3.073 2.654 3.525z"/><path fill="var(--color48, #e3aa75)" d="M19.809 10.412V6.348h-1.016v4.064a4.065 4.065 0 003.464 4.02l.022.003a.51.51 0 00.577-.507.502.502 0 00-.432-.498 3.054 3.054 0 01-2.616-3.018z"/><path fill="var(--color49, #9f6e50)" d="M24.381 3.301h-3.556c-1.403 0-2.294.936-2.294 2.339 0 .561.455 1.016 1.016 1.016.841 0 1.279.883 1.279 1.725v1.524a2.54 2.54 0 002.54 2.54h2.539c1.122 0 2.032-.91 2.032-2.032V6.858a3.555 3.555 0 00-3.555-3.555z"/><path fill="var(--color50, #785353)" d="M20.317 3.301a2.54 2.54 0 00-2.54 2.54c0 .561.455 1.016 1.016 1.016h.508c.842 0 1.524.682 1.524 1.524v-5.08h-.508z"/></symbol><symbol id="icon-rocket" viewBox="0 0 32 32"><path fill="var(--color51, #c3dafd)" d="M5.025 18.398L0 13.373l4.226-4.226 5.305-1.498 3.121 3.121-7.627 7.627z"/><path fill="var(--color52, #a1b8d8)" d="M18.622 31.995l-5.025-5.026 7.627-7.627 3.127 3.127-1.503 5.3-4.226 4.226z"/><path fill="var(--color53, #ecc443)" d="M.033 30.632l6.607-6.607 1.324 1.323-6.607 6.607-1.323-1.323z"/><path fill="var(--color54, #e39069)" d="M.703 31.299l6.606-6.607.655.655-6.606 6.607-.655-.655zm5.151-1.122l3.47-3.47 1.323 1.323-3.47 3.47-1.324-1.324z"/><path fill="var(--color53, #ecc443)" d="M.488 24.81l3.47-3.47 1.324 1.323-3.47 3.47L.489 24.81z"/><path fill="var(--color55, #2b4ca1)" d="M15.625 25.831l-9.45-9.451-2.468.7-1.588 3.744 8.987 8.987 3.821-1.512.7-2.468z"/><path fill="var(--color56, #213b82)" d="M10.651 21.36l-3.998 3.998 4.452 4.452 3.821-1.512.448-2.216-4.723-4.723z"/><path fill="var(--color57, #e4f3ff)" d="M29.863 10.92C32.388 5.21 31.945.595 32 .009c-.345.069-10.608-.908-18.976 7.75l-9.319 9.319 11.22 11.219 9.318-9.318a25.74 25.74 0 005.62-8.059z"/><path fill="var(--color51, #c3dafd)" d="M29.863 10.92C32.388 5.21 31.945.595 32 .009h-.002l-22.68 22.68 5.607 5.607 9.318-9.319a25.74 25.74 0 005.62-8.059z"/><path fill="var(--color58, #84d9f3)" d="M16.934 15.072c-2.658-2.659-.81-7.29 3.02-7.293 3.802-.003 5.697 4.619 3.02 7.295a4.276 4.276 0 01-6.04-.002z"/><path fill="var(--color59, #77b0fb)" d="M22.979 9.032l-6.043 6.043a4.276 4.276 0 006.038.001c1.801-1.801 1.532-4.483.005-6.043z"/></symbol></defs></svg>