<svg width="29" height="29" fill="none" xmlns="http://www.w3.org/2000/svg"><g clip-path="url(#clip0)" fill="#fff"><path d="M10.5 10.506a.68.68 0 01.68.68v12.836a.68.68 0 01-1.359 0V11.186a.68.68 0 01.68-.68zm8.014 0a.68.68 0 01.68.68v12.836a.68.68 0 01-1.359 0V11.186a.68.68 0 01.68-.68z"/><path d="M24.354 8.633v16.733c0 .99-.362 1.918-.996 2.584A3.345 3.345 0 0120.931 29H8.082a3.344 3.344 0 01-2.426-1.05c-.634-.666-.996-1.595-.996-2.584V8.633a2.594 2.594 0 01.665-5.102h3.478v-.849A2.668 2.668 0 0111.492 0h6.03a2.668 2.668 0 012.69 2.682v.85h3.477a2.595 2.595 0 01.665 5.101zM8.082 27.641h12.85c1.16 0 2.064-.997 2.064-2.275V8.693H6.017v16.673c0 1.278.903 2.275 2.065 2.275zM18.853 2.682a1.308 1.308 0 00-1.331-1.324h-6.03a1.308 1.308 0 00-1.332 1.324v.85h8.693v-.85zM23.69 4.89H5.324a1.222 1.222 0 100 2.444H23.69a1.222 1.222 0 000-2.444z"/><path d="M14.506 10.506a.68.68 0 01.68.68v12.836a.68.68 0 01-1.359 0V11.186a.68.68 0 01.68-.68z"/></g><defs><clipPath id="clip0"><path fill="#fff" transform="matrix(-1 0 0 1 29 0)" d="M0 0h29v29H0z"/></clipPath></defs></svg>