<svg width="100" height="30" fill="none" xmlns="http://www.w3.org/2000/svg"><g clip-path="url(#clip0)"><path fill-rule="evenodd" clip-rule="evenodd" d="M0 30h44.286c.03-.048.057-.097.09-.143l5.124-7.299 5.116-7.285c.06-.086.09-.128.09-.17 0-.042-.03-.084-.087-.166l-2.104-3.01C49.804 8.05 47.093 4.171 44.384.293 44.31.188 44.237.15 44.11.15 29.469.154 14.827.154.186.154H0V30zM32.097 8.318c.647-.17 1.255-.236 2.07-.236 1.764.015 3.47.635 4.9 1.938 1.113 1.013 1.794 2.276 2.066 3.75.304 1.64.086 3.21-.729 4.675-.966 1.736-2.44 2.85-4.363 3.354-1.656.436-3.297.348-4.881-.31-2.064-.859-3.396-2.399-4.022-4.515-.559-1.892-.356-3.731.645-5.448.975-1.671 2.441-2.719 4.314-3.208zM20.59 12.86a.361.361 0 01-.098.097 37.04 37.04 0 01-.332-.267c-.124-.1-.247-.2-.372-.298-.468-.356-.974-.64-1.553-.766-.643-.14-1.289-.19-1.928.003-.912.276-1.549.877-1.967 1.713-.348.694-.442 1.434-.35 2.2.073.601.267 1.159.621 1.653a3.102 3.102 0 002.218 1.314c.836.104 1.646 0 2.412-.367.262-.125.262-.128.262-.417v-.636c-.002-.109.006-.156-.014-.177-.019-.02-.065-.014-.172-.014h-2.431c-.109 0-.156.005-.175-.016-.02-.02-.012-.067-.012-.174v-2.944c.001-.024.002-.048 0-.072-.005-.057.015-.086.077-.082a.625.625 0 00.108 0h6.146c.04 0 .073.008.069.059-.003.031.016.052.036.073.024.025.048.05.035.096a.352.352 0 00-.006.125l.003.059v1.104c0 1.474-.001 2.949.003 4.423 0 .12-.038.195-.129.27-1.144.95-2.43 1.612-3.887 1.938a8.658 8.658 0 01-2.613.177c-1.04-.083-2.029-.35-2.944-.855-1.677-.927-2.733-2.334-3.22-4.171a7.317 7.317 0 01-.21-2.474c.254-3.094 2.433-5.51 5.35-6.182.833-.192 1.674-.22 2.523-.163a8.7 8.7 0 011.915.331c.939.28 1.765.76 2.516 1.376.087.072.174.144.26.218.107.093.112.145.017.259l-1.422 1.706c-.1.118-.198.236-.296.354-.139.167-.277.334-.417.5a.972.972 0 00-.023.03zm16.756 1.374c-.35-1.531-1.634-2.635-3.597-2.63-.967.02-1.964.572-2.59 1.723-.424.78-.523 1.623-.362 2.493a3.36 3.36 0 00.922 1.794c.772.78 1.718 1.084 2.803.961 1.12-.128 1.955-.7 2.488-1.685.454-.838.547-1.734.336-2.656z" fill="#fff"/><path d="M55.776 0H100v29.846c-.076-.025-.152-.01-.23-.01-14.582 0-29.167 0-43.751-.002-.266 0-.23.038-.23-.227V.213c0-.071.013-.144-.013-.213zM81.82 8.495H76.2c-.062-.003-.082.026-.079.083.002.026 0 .05 0 .077v3.126c0 .18-.012.164.169.164h3.453c.223 0 .223 0 .223.215v9.64c0 .176-.022.162.166.164h3.313c.206 0 .206 0 .206-.2v-9.64c0-.195-.024-.178.185-.178h3.515c.153 0 .153-.001.153-.15v-3.11c0-.214.023-.19-.189-.19l-5.494-.001zm-12.858 6.727v6.513c0 .041.003.081 0 .123-.007.074.014.12.1.108.031-.005.062 0 .093 0h3.297c.227 0 .195.026.195-.198V8.697c0-.031-.003-.062 0-.093.008-.077-.019-.117-.102-.108-.025.003-.051 0-.078 0H69.14c-.203 0-.178-.024-.178.182-.002 2.18 0 4.361 0 6.544z" fill="#FF6C00"/><path fill-rule="evenodd" clip-rule="evenodd" d="M20.29 12.795l.203.163a.352.352 0 00.099-.1l.018-.025a751.627 751.627 0 002.135-2.56c.095-.113.092-.166-.016-.258a12.107 12.107 0 00-.26-.219c-.753-.616-1.58-1.096-2.517-1.375a8.877 8.877 0 00-1.915-.331c-.849-.057-1.69-.03-2.523.163-2.917.671-5.094 3.086-5.35 6.182a7.317 7.317 0 00.21 2.473c.487 1.837 1.543 3.245 3.22 4.172.914.505 1.903.772 2.944.855.88.07 1.753.017 2.613-.177 1.456-.328 2.743-.99 3.887-1.938a.314.314 0 00.129-.27c-.004-1.474-.004-2.948-.004-4.422v-1.106c0-.02 0-.039-.002-.058-.003-.043-.006-.086.006-.125.013-.046-.011-.072-.035-.098-.02-.02-.04-.041-.037-.072.007-.05-.027-.058-.068-.058h-6.181c-.025.001-.05.002-.073 0-.062-.006-.082.024-.077.081a.62.62 0 010 .073v2.945c0 .108-.008.155.012.176.02.02.066.014.175.014h2.431c.107 0 .154-.005.173.015.02.02.012.068.013.176v.637c0 .289 0 .291-.262.417-.766.366-1.576.47-2.412.366-.93-.115-1.673-.554-2.218-1.313a3.504 3.504 0 01-.62-1.653c-.092-.767 0-1.505.35-2.2.419-.837 1.054-1.438 1.966-1.713.64-.194 1.287-.143 1.928-.003.58.126 1.087.41 1.553.765.17.13.337.264.506.4zm18.78-2.775c-1.433-1.303-3.14-1.924-4.903-1.938-.815.002-1.423.068-2.069.236-1.873.488-3.34 1.535-4.314 3.208-1 1.715-1.203 3.556-.644 5.448.626 2.116 1.959 3.657 4.021 4.514 1.584.658 3.226.746 4.881.311 1.923-.503 3.398-1.617 4.364-3.354.814-1.464 1.033-3.035.73-4.675-.274-1.474-.955-2.737-2.067-3.75zm-7.91 3.308c.624-1.15 1.621-1.702 2.589-1.724 1.963-.004 3.247 1.1 3.597 2.63.212.923.118 1.82-.336 2.657-.534.984-1.367 1.557-2.488 1.685-1.084.125-2.03-.182-2.803-.96a3.355 3.355 0 01-.922-1.795c-.16-.87-.061-1.713.363-2.493z" fill="#1C1B1B"/><path fill-rule="evenodd" clip-rule="evenodd" d="M87.318 8.495H81.82c-1.832 0-3.663 0-5.493-.002h-.124c-.062-.003-.083.027-.079.084v3.203c0 .089-.003.13.016.149.02.018.061.014.153.014h3.453c.113 0 .169 0 .196.028.027.027.027.081.027.188v9.639c0 .088-.005.13.013.149.018.019.06.016.153.016h3.313c.104 0 .156 0 .181-.026.025-.025.025-.076.025-.175v-9.639c0-.097-.006-.142.014-.162.02-.02.065-.016.17-.016h3.516c.151 0 .151 0 .153-.15V8.684c0-.107.006-.154-.015-.175-.02-.02-.068-.014-.174-.014zm-18.355.183v13.098a.748.748 0 010 .082c-.007.075.014.12.1.107a.475.475 0 01.093 0h3.297c.113 0 .162.006.182-.015.021-.021.013-.07.013-.182V8.666c-.001-.021-.002-.042 0-.062.008-.077-.019-.117-.102-.108a.29.29 0 01-.051 0H69.14c-.101 0-.146-.006-.165.013-.02.02-.013.065-.013.169z" fill="#fff"/></g><defs><clipPath id="clip0"><path fill="#fff" d="M0 0h100v30H0z"/></clipPath></defs></svg>