<svg aria-hidden="true" style="position:absolute;width:0;height:0" xmlns="http://www.w3.org/2000/svg" overflow="hidden"><defs><symbol id="icon-browser" viewBox="0 0 32 32"><path fill="var(--color1, #4141e4)" d="M31.467 7.4H4.533a.533.533 0 110-1.066h26.4V4.267c0-.882-.717-1.6-1.6-1.6H2.667a1.602 1.602 0 00-1.6 1.6v23.467a1.6 1.6 0 001.6 1.6h26.666a1.6 1.6 0 001.6-1.6V10.623a.533.533 0 111.066 0v17.111a2.67 2.67 0 01-2.667 2.667H2.666a2.67 2.67 0 01-2.667-2.667V4.268a2.67 2.67 0 012.667-2.667h26.666a2.67 2.67 0 012.667 2.667v2.6a.534.534 0 01-.533.534zM4.533 5.067H4.8a.533.533 0 100-1.066h-.267a.533.533 0 100 1.066zm3.6 0a.533.533 0 100-1.066h-.266a.533.533 0 100 1.066h.266zm3.334 0a.533.533 0 100-1.066H11.2a.533.533 0 100 1.066h.267zm2.583 16.2a.533.533 0 01-.533-.533V13.8c0-.294.239-.533.533-.533h3.9c.294 0 .533.239.533.534v6.933a.533.533 0 01-.533.533h-3.9zm.534-1.067h2.833v-5.867h-2.833v5.866zm-5.982-6.894a.536.536 0 00-.695.288l-.001.004-2.166 5.308a.534.534 0 00.494.735H9.6v1.092a.533.533 0 101.066 0v-1.091h.55a.533.533 0 100-1.066h-.55v-4.774a.533.533 0 00-1.066 0v4.774H7.027l1.866-4.573a.532.532 0 00-.288-.694l-.004-.001zm16.082 7.96a.533.533 0 00.533-.533v-1.091h.55a.533.533 0 100-1.066h-.55v-4.774a.533.533 0 10-1.066 0v4.774h-2.573l1.867-4.573a.534.534 0 00-.986-.407l-.001.003-2.167 5.309a.534.534 0 00.494.735h3.366v1.092c0 .294.239.533.534.533zm-2.017 3.867a.533.533 0 000 1.066h.733a.533.533 0 000-1.066h-.733zM8.6 26.199h11.417a.533.533 0 000-1.066H8.601a.533.533 0 000 1.066z"/></symbol><symbol id="icon-coding" viewBox="0 0 32 32"><path fill="var(--color1, #4141e4)" d="M27.5 22.502v-2.003a2.503 2.503 0 00-2.5-2.5h-4.209a13.57 13.57 0 001.087-2.584l.026-.1 1.901-1.521a1.846 1.846 0 00-1.091-3.289h-.003l1.114-3.063A5.176 5.176 0 0018.963.498h-4.25c-3.327 0-6.43.96-9.047 2.617l.069-.041a.5.5 0 00.103.899l.004.001 1.206.4a1.287 1.287 0 01.783 1.703l.003-.009a2.28 2.28 0 00.082 1.882l-.006-.013 1.29 2.575a1.845 1.845 0 00-1.007 3.278l.004.003 1.9 1.521a14 14 0 001.15 2.756l-.037-.073H7a2.503 2.503 0 00-2.5 2.5V22.5c-2.366 1.007-3.996 3.311-4 5.996v2.501a.5.5 0 00.5.499h30.001a.5.5 0 00.499-.499v-2.501a6.512 6.512 0 00-3.957-5.981l-.043-.016zM20 10.5h-3a.5.5 0 00-.499.5v.5h-1V11a.5.5 0 00-.5-.5h-4.5v-.732l3.121-2.081A4.044 4.044 0 0115.887 7h.004a5.084 5.084 0 003.189-1.123l-.01.008.817-.654.858 1.287c.473.7.755 1.562.755 2.491v1.492H20zm-.5 1.001v1.501a.5.5 0 01-.5.5h-1.001a.5.5 0 01-.5-.5v-1.501h2zm-5 0v1.501a.5.5 0 01-.5.5h-1a.5.5 0 01-.499-.5v-1.501H14.5zm9 .85v.001a.845.845 0 01-.318.661l-.002.001-.906.725c.132-.739.205-1.488.218-2.239h.158a.852.852 0 01.85.85zM8.761 6.443a2.286 2.286 0 00-1.381-3.01l-.016-.005-.153-.051C9.383 2.195 11.967 1.5 14.713 1.5h4.249a4.176 4.176 0 013.914 5.629l.009-.029-.434 1.195a5.477 5.477 0 00-.887-2.354l.012.019-1.16-1.741a.5.5 0 00-.73-.112l.001-.001-1.243.996a4.08 4.08 0 01-2.555.896h-.004a5.05 5.05 0 00-2.838.867l.018-.011-3.344 2.229a.495.495 0 00-.084.073l-.832-1.665a1.3 1.3 0 01-.042-1.059l-.003.009zm.058 6.573a.849.849 0 01.527-1.515h.161c.013.751.085 1.5.218 2.24l-.906-.725zm1.689-1.515h.992v1.5a1.5 1.5 0 001.499 1.5h1a1.5 1.5 0 001.5-1.499v-.5h1v.5a1.5 1.5 0 001.5 1.5h1a1.5 1.5 0 001.5-1.499v-1.5h.992a13.034 13.034 0 01-1.888 6.558l.033-.058h-7.273a12.943 12.943 0 01-1.856-6.488v-.012zM7 19h18.001a1.5 1.5 0 011.5 1.5v10h-21V20.499a1.5 1.5 0 011.5-1.5h.001zm-5.499 9.5a5.509 5.509 0 012.969-4.882l.031-.014V30.5h-3v-2zm28.999 2h-3v-6.897c1.793.931 2.997 2.773 3 4.896v2z"/><path fill="var(--color1, #4141e4)" d="M16 29a2 2 0 100-4 2 2 0 100 4zm0-3h.025a1 1 0 010 2h-.027.001a1 1 0 01-.001-2h.001zm-3.354-1.647l.707-.707-1.647-1.647 1.647-1.647-.707-.707-2 2a.498.498 0 000 .706l2 2zm6.708 0l2-2a.498.498 0 000-.706l-2-2-.707.707 1.647 1.647-1.647 1.647.707.707zM17.101 19.7l-3.002 4 .8.6 3.002-3.999-.8-.6z"/></symbol><symbol id="icon-user" viewBox="0 0 32 32"><path fill="var(--color1, #4141e4)" d="M24.592 20.547c-.208 0-.414-.066-.589-.193a.998.998 0 01-.412-.898v.004l.175-2.221-1.448-1.695a.996.996 0 01-.19-.971l-.002.007a.999.999 0 01.722-.668l2.168-.52 1.165-1.901c.184-.301.505-.48.858-.48s.674.179.858.48l1.165 1.901 2.168.52c.343.082.613.332.722.668s.037.696-.192.964l-1.448 1.695.175 2.222a.998.998 0 01-.41.891l-.003.002a1.007 1.007 0 01-.983.113l.006.002-2.059-.853-2.06.853a1.006 1.006 0 01-.387.078zm2.446-2.233c.081 0 .163.016.239.048l1.931.8-.164-2.083a.629.629 0 01.148-.456l-.001.001 1.357-1.589-2.032-.488a.626.626 0 01-.386-.279l-.002-.003-1.092-1.782-1.091 1.782a.629.629 0 01-.383.281l-.004.001-2.033.486 1.357 1.59a.622.622 0 01.148.457v-.002l-.164 2.084 1.931-.8a.618.618 0 01.239-.048zM2.516 20.547c-.208 0-.414-.066-.589-.193a.997.997 0 01-.411-.897v.004l.175-2.221-1.448-1.695a.996.996 0 01-.19-.971l-.002.007a.999.999 0 01.722-.668l2.168-.52 1.164-1.901c.186-.301.506-.48.858-.48h.001a1 1 0 01.858.48l1.164 1.901 2.168.52a.999.999 0 01.722.668.996.996 0 01-.193.966l.001-.001-1.448 1.695.175 2.222a.996.996 0 01-.409.891l-.003.002a.988.988 0 01-.983.112l.006.002-2.059-.853-2.059.853a.986.986 0 01-.387.078zm-1.065-5.513l1.357 1.59a.622.622 0 01.148.457v-.002l-.164 2.084 1.931-.8a.622.622 0 01.479 0l1.931.8-.164-2.083a.629.629 0 01.148-.456l-.001.001 1.357-1.589-2.032-.488a.626.626 0 01-.386-.279l-.002-.003-1.092-1.782-1.091 1.782a.629.629 0 01-.383.281l-.004.001-2.033.488zm7.281-.303l-.001.001z"/><path fill="var(--color1, #4141e4)" d="M24.513 9.512a1.32 1.32 0 00-.941-.877l-.009-.002-4.186-1.004-2.247-3.67a1.316 1.316 0 00-1.124-.632H16c-.465 0-.887.236-1.13.632l-2.248 3.67-4.186 1.004a1.314 1.314 0 00-.95.879 1.313 1.313 0 00.254 1.271l-.001-.002 2.796 3.272-.339 4.291c-.036.463.166.902.541 1.175.215.159.485.254.778.254.183 0 .358-.037.516-.105l-.009.003 4.216-1.747a.625.625 0 10-.482-1.153l.004-.002-2.225.922v-2.405c0-.198.161-.358.358-.358h4.212c.198 0 .358.16.358.358v3.354a.63.63 0 00.393.569l.004.002h.001l1.112.462c.429.178.909.121 1.286-.152a1.316 1.316 0 00.541-1.179v.005l-.339-4.291 2.796-3.272c.301-.353.397-.828.253-1.269zm-10.395 2.283a1.884 1.884 0 011.881-1.882 1.884 1.884 0 011.882 1.882A1.884 1.884 0 0116 13.677a1.884 1.884 0 01-1.882-1.882zm9.191-1.826l-2.963 3.469a.625.625 0 00-.148.458v-.002l.359 4.549a.067.067 0 01-.03.065.07.07 0 01-.042.015.06.06 0 01-.03-.007l-.74-.307v-2.923c0-.762-.532-1.402-1.245-1.568a3.093 3.093 0 00.662-1.92v-.003a3.135 3.135 0 00-3.131-3.132 3.136 3.136 0 00-3.132 3.132c0 .724.247 1.392.662 1.923a1.615 1.615 0 00-1.245 1.567v2.924l-.74.307a.07.07 0 01-.072-.009.067.067 0 01-.03-.066l.358-4.549a.62.62 0 00-.148-.455l.001.001-2.964-3.47a.067.067 0 01-.014-.07.068.068 0 01.053-.049l4.438-1.064a.628.628 0 00.385-.279l.002-.003 2.383-3.891a.069.069 0 01.064-.035c.041 0 .057.026.063.035l2.383 3.891a.63.63 0 00.387.282l4.437 1.064a.07.07 0 01.054.049.059.059 0 01.004.023.067.067 0 01-.019.047zm3.729 18.705H4.962a.625.625 0 01-.625-.625V21.83c0-.346.28-.625.625-.625H17.23a.625.625 0 01.001 1.25H5.588v4.969h20.826v-4.969h-3.226a.625.625 0 01-.001-1.25h3.852c.346 0 .625.28.625.625v6.219c0 .346-.28.625-.625.625z"/><path fill="var(--color1, #4141e4)" d="M20.312 22.454a.63.63 0 01-.518-.276l-.001-.002a.652.652 0 01-.093-.221l-.001-.004a.622.622 0 01.263-.64l.002-.001a.633.633 0 01.221-.093l.004-.001a.617.617 0 01.47.095l-.002-.001a.628.628 0 01.229.762l.002-.004a.626.626 0 01-.577.386zm.209 2.11h-9.042a.625.625 0 01-.001-1.25h9.043a.625.625 0 01.001 1.25h-.001zm-1.938 2h-5.186a.625.625 0 010-1.25h.021-.001 5.166a.625.625 0 01.001 1.25h-.001z"/></symbol><symbol id="icon-web-programming" viewBox="0 0 32 32"><path fill="var(--color1, #4141e4)" d="M12.625 22.426a.52.52 0 01-.342-.127l.001.001-3.419-2.911a.53.53 0 01-.001-.804l.001-.001 3.419-2.911a.527.527 0 11.685.804l-.001.001-2.946 2.509 2.946 2.509a.529.529 0 01-.343.931zm6.75 0h-.001a.527.527 0 01-.342-.93l.001-.001 2.946-2.509-2.946-2.509a.528.528 0 11.685-.803l-.001-.001 3.418 2.911a.53.53 0 01.001.804l-.001.001-3.418 2.911a.525.525 0 01-.342.126zm-4.585 2.182a.53.53 0 01-.517-.641l-.001.003 2.13-10.115a.53.53 0 011.034.221v-.003l-2.131 10.116a.53.53 0 01-.516.42z"/><path fill="var(--color1, #4141e4)" d="M28.453 30.12H3.547A3.552 3.552 0 010 26.573V5.434a3.552 3.552 0 013.547-3.547h24.907a3.551 3.551 0 013.547 3.547v21.139a3.552 3.552 0 01-3.547 3.547zM3.547 2.943a2.493 2.493 0 00-2.49 2.491v21.139a2.493 2.493 0 002.49 2.49h24.906a2.493 2.493 0 002.49-2.49V5.434a2.494 2.494 0 00-2.49-2.49H3.547z"/><path fill="var(--color1, #4141e4)" d="M31.472 10.346H.528a.527.527 0 110-1.056h30.944a.529.529 0 01.002 1.056h-.001zM9.027 7.818a1.674 1.674 0 01-1.672-1.672 1.674 1.674 0 011.672-1.672 1.674 1.674 0 011.672 1.672 1.674 1.674 0 01-1.672 1.672zm0-2.286a.617.617 0 00-.002 1.23h.002a.616.616 0 00.002-1.23h-.001zM3.89 7.802a1.673 1.673 0 01-1.672-1.67A1.673 1.673 0 013.89 4.46a1.674 1.674 0 011.672 1.672A1.674 1.674 0 013.89 7.804zm0-2.287a.617.617 0 00-.616.616v.001a.616.616 0 10.616-.616h-.001zm10.273 2.319a1.674 1.674 0 01-1.672-1.672 1.674 1.674 0 011.672-1.672 1.674 1.674 0 011.672 1.672 1.674 1.674 0 01-1.672 1.672zm0-2.287a.616.616 0 00-.001 1.23h.001a.616.616 0 00.001-1.23h-.001z"/></symbol></defs></svg>