<svg aria-hidden="true" style="position:absolute;width:0;height:0" xmlns="http://www.w3.org/2000/svg" overflow="hidden"><defs><symbol id="quality" viewBox="0 0 32 32"><path d="M28.553 28.061l-4.048-7.012a3.623 3.623 0 001.259-2.281c.084-.62.403-1.172.897-1.554a3.63 3.63 0 001.134-4.233 2.355 2.355 0 010-1.795 3.63 3.63 0 00-1.134-4.233 2.357 2.357 0 01-.897-1.554A3.63 3.63 0 0022.665 2.3a2.353 2.353 0 01-1.554-.897A3.63 3.63 0 0016.878.269a2.355 2.355 0 01-1.795 0 3.63 3.63 0 00-4.233 1.134 2.357 2.357 0 01-1.554.897 3.63 3.63 0 00-3.099 3.099A2.353 2.353 0 015.3 6.953a3.63 3.63 0 00-1.134 4.233 2.355 2.355 0 010 1.795A3.63 3.63 0 005.3 17.214c.494.383.813.935.897 1.554.126.923.6 1.736 1.286 2.303l-4.035 6.99a.623.623 0 00.703.916l3.517-.943.938 3.502a.625.625 0 001.145.15l4.354-7.542a3.58 3.58 0 00.977-.247 2.355 2.355 0 011.795 0 3.58 3.58 0 001.019.251l4.352 7.537a.626.626 0 001.145-.15l.939-3.502 3.517.943a.624.624 0 00.703-.916zm-19.13 1.694l-.71-2.648a.623.623 0 00-.765-.442l-2.664.714 3.284-5.689c.232.083.475.143.727.177.62.084 1.172.403 1.554.897a3.614 3.614 0 001.88 1.265l-3.306 5.726zm5.186-7.013A2.376 2.376 0 0111.838 22a3.602 3.602 0 00-2.375-1.371A2.375 2.375 0 017.435 18.6a3.602 3.602 0 00-1.371-2.375 2.376 2.376 0 01-.742-2.771 3.597 3.597 0 000-2.742 2.376 2.376 0 01.742-2.771 3.602 3.602 0 001.371-2.375 2.377 2.377 0 012.028-2.029 3.602 3.602 0 002.375-1.371 2.376 2.376 0 012.771-.742 3.597 3.597 0 002.742 0 2.376 2.376 0 012.771.742 3.602 3.602 0 002.374 1.371 2.377 2.377 0 012.029 2.029c.129.947.616 1.79 1.371 2.375a2.376 2.376 0 01.742 2.771 3.597 3.597 0 000 2.742 2.378 2.378 0 01-.742 2.771 3.602 3.602 0 00-1.371 2.374 2.377 2.377 0 01-2.028 2.029 3.602 3.602 0 00-2.375 1.371 2.376 2.376 0 01-2.771.742 3.597 3.597 0 00-2.742 0zm9.443 3.923a.626.626 0 00-.766.442l-.71 2.648-3.312-5.736a3.61 3.61 0 001.846-1.255 2.353 2.353 0 011.554-.897c.263-.036.517-.1.759-.189l3.292 5.701-2.664-.714z"/><path d="M13.14 9.771l-1.945 1.945a.625.625 0 000 .884l3.648 3.648a.625.625 0 00.884 0l5.079-5.079a.625.625 0 000-.884L18.861 8.34a.625.625 0 00-.884 0l-2.692 2.692-1.261-1.261a.625.625 0 00-.884 0zm1.702 2.586a.625.625 0 00.884 0l2.692-2.692 1.061 1.061-4.195 4.195-2.764-2.764 1.061-1.061 1.261 1.261z"/><path d="M24.126 12.293c0-1.66-.498-3.257-1.439-4.618a8.108 8.108 0 00-3.693-2.938.625.625 0 10-.46 1.162 6.843 6.843 0 014.343 6.394c0 3.792-3.085 6.876-6.876 6.876s-6.876-3.085-6.876-6.876a6.843 6.843 0 014.343-6.394.625.625 0 00-.46-1.162 8.121 8.121 0 00-3.693 2.938 8.084 8.084 0 00-1.439 4.618c0 4.481 3.645 8.126 8.126 8.126s8.126-3.645 8.126-8.126z"/><path d="M16 5.418a.627.627 0 00.625-.625.631.631 0 00-.183-.442.63.63 0 00-.884 0 .63.63 0 000 .884.631.631 0 00.442.183z"/></symbol><symbol id="briefcase" viewBox="0 0 32 32"><path d="M30.545 17.454c-.436 0-.727.291-.727.727v9.455c0 .436-.291.727-.727.727H2.909c-.436 0-.727-.291-.727-.727v-9.455c0-.436-.291-.727-.727-.727s-.727.291-.727.727v9.455c0 1.236.945 2.182 2.182 2.182h26.182c1.236 0 2.182-.945 2.182-2.182v-9.455c0-.436-.291-.727-.727-.727z"/><path d="M29.818 7.272H2.182C.946 7.272 0 8.217 0 9.454v4.655C0 15.127.727 16 1.673 16.218l11.418 2.545v2.327c0 .436.291.727.727.727h4.364c.436 0 .727-.291.727-.727v-2.327l11.418-2.545A2.183 2.183 0 0032 14.109V9.454c0-1.236-.945-2.182-2.182-2.182zM17.455 20.363h-2.909v-2.909h2.909v2.909zm13.09-6.254c0 .364-.218.655-.582.727l-11.055 2.473v-.582c0-.436-.291-.727-.727-.727h-4.364c-.436 0-.727.291-.727.727v.582L2.035 14.836c-.364-.073-.582-.364-.582-.727V9.454c0-.436.291-.727.727-.727h27.636c.436 0 .727.291.727.727v4.654zM19.636 2.181h-7.273c-1.236 0-2.182.945-2.182 2.182v.727c0 .436.291.727.727.727s.727-.291.727-.727v-.727c0-.436.291-.727.727-.727h7.273c.436 0 .727.291.727.727v.727c0 .436.291.727.727.727s.727-.291.727-.727v-.727c0-1.236-.945-2.182-2.182-2.182z"/></symbol><symbol id="care" viewBox="0 0 32 32"><path d="M27.84 1.6c-1.248 0-2.24.992-2.24 2.24v1.184a2.352 2.352 0 00-.96-.224c-1.248 0-2.24.992-2.24 2.24v5.376l-1.92 1.76v-.416c0-1.76-1.024-3.264-2.496-4a2.846 2.846 0 00.896-2.08c0-1.6-1.28-2.88-2.88-2.88s-2.88 1.28-2.88 2.88c0 .8.352 1.536.896 2.08-1.472.736-2.496 2.24-2.496 4v.416l-1.92-1.76V7.04c0-1.248-.992-2.24-2.24-2.24-.352 0-.672.064-.96.224V3.84c0-1.248-.992-2.24-2.24-2.24s-2.24.992-2.24 2.24v13.344c0 .416.128.8.384 1.12l4.64 6.368a.784.784 0 01.128.384v3.424c0 1.056.864 1.92 1.92 1.92h5.76c.48 0 .928-.192 1.28-.48.352.32.8.48 1.28.48h5.76c1.056 0 1.92-.864 1.92-1.92v-3.424c0-.128.032-.256.128-.384l4.64-6.368c.256-.32.384-.704.384-1.12V3.84C30.08 2.592 29.088 1.6 27.84 1.6zm-4.16 5.44c0-.544.416-.96.96-.96s.96.416.96.96v4.32c-.224-.096-.48-.192-.736-.192-.416-.032-.8.032-1.184.224V7.04zM16 6.08c.896 0 1.6.704 1.6 1.6s-.704 1.6-1.6 1.6c-.896 0-1.6-.704-1.6-1.6s.704-1.6 1.6-1.6zm-9.6.96c0-.544.416-.96.96-.96s.96.416.96.96v4.32a2.45 2.45 0 00-1.184-.224 2.767 2.767 0 00-.736.192V7.04zm8.96 21.44c0 .352-.288.64-.64.64H8.96a.642.642 0 01-.64-.64V27.2h7.04v1.28zm0-2.56H8.32v-.864c0-.416-.128-.8-.384-1.12l-4.608-6.368c-.064-.128-.128-.256-.128-.384V3.84c0-.544.416-.96.96-.96s.96.416.96.96v9.728c.064.576.32 1.12.736 1.504l6.24 5.76c.256.224.672.224.896-.032a.574.574 0 00.16-.416.706.706 0 00-.192-.48l-6.208-5.76c-.384-.352-.48-.928-.16-1.344.16-.224.416-.352.672-.384s.544.064.736.256l6.528 6.016c.512.48.832 1.184.832 1.888v5.344zm.64-7.456a3.212 3.212 0 00-.608-.704l-2.592-2.4v-1.6c0-1.76 1.44-3.2 3.2-3.2s3.2 1.44 3.2 3.2v1.6l-2.592 2.4a3.212 3.212 0 00-.608.704zm7.68 10.016c0 .352-.288.64-.64.64h-5.76a.642.642 0 01-.64-.64V27.2h7.04v1.28zm5.12-11.296a.615.615 0 01-.128.384l-4.608 6.368c-.256.32-.384.704-.384 1.12v.864h-7.04v-5.344c0-.704.288-1.408.832-1.888L24 12.672c.192-.192.48-.288.736-.256s.512.16.672.384c.288.384.224.96-.16 1.344l-6.24 5.728c-.256.256-.288.64-.032.896a.651.651 0 00.48.192c.16 0 .32-.064.416-.16l6.24-5.76c.448-.416.704-.96.736-1.504V3.84c0-.544.416-.96.96-.96s.96.416.96.96v13.344h.032z"/></symbol><symbol id="conversation" viewBox="0 0 32 32"><path d="M11.357 22.926a.642.642 0 00-.138-.023 3.994 3.994 0 001.106-2.761v-3.288a.64.64 0 00-.007-.088c.004-.059.007-.119.007-.18v-2.08a.625.625 0 00-.625-.625H7.508a3.205 3.205 0 00-3.201 3.201v3.06c0 1.069.422 2.041 1.106 2.761a.652.652 0 00-.138.023 5.81 5.81 0 00-5.276 5.779v2.67c0 .345.28.625.625.625h15.383c.345 0 .625-.28.625-.625v-2.67a5.811 5.811 0 00-5.275-5.779zm-5.8-5.051v-.793c0-1.076.875-1.951 1.951-1.951h3.567v1.455a1.33 1.33 0 01-1.329 1.329h-4.19v-.04zm0 1.29h4.19c.486 0 .94-.135 1.329-.37v1.347c0 1.521-1.238 2.759-2.759 2.759s-2.759-1.238-2.759-2.759v-.977zm4.12 4.987l-1.36 1.36-1.36-1.36h2.721zm5.706 6.598H1.25V29.5h2.594a.625.625 0 000-1.25H1.273a4.562 4.562 0 013.953-4.061l2.648 2.648a.625.625 0 00.884 0l2.648-2.648a4.559 4.559 0 013.976 4.515v2.045zM26.725 9.045a.652.652 0 00-.138-.023 3.994 3.994 0 001.106-2.761V2.973a.64.64 0 00-.007-.088c.004-.059.007-.119.007-.179V.626a.625.625 0 00-.625-.625h-4.192a3.205 3.205 0 00-3.201 3.201v3.06c0 1.069.422 2.041 1.106 2.761a.586.586 0 00-.138.023 5.811 5.811 0 00-5.275 5.779v2.67c0 .345.28.625.625.625h5.029a.625.625 0 000-1.25h-4.404v-2.045a4.558 4.558 0 013.976-4.515l2.648 2.648a.623.623 0 00.884 0l2.648-2.648a4.559 4.559 0 013.976 4.515v2.045h-4.604a.625.625 0 000 1.25h5.229c.345 0 .625-.28.625-.625v-2.67a5.811 5.811 0 00-5.275-5.779zm-3.041 2.586l-1.36-1.36h2.721l-1.36 1.36zm2.759-5.37c0 1.521-1.238 2.759-2.759 2.759s-2.759-1.238-2.759-2.759v-.977h4.19c.486 0 .94-.135 1.329-.37v1.347zm0-3.556a1.33 1.33 0 01-1.329 1.329h-4.19v-.833c0-1.076.875-1.951 1.951-1.951h3.567v1.455z"/><path d="M24.126 17.052a.63.63 0 00-.884 0 .625.625 0 10.884 0zm-7.413-8.306l-2.614-2.614V3.125A3.129 3.129 0 0010.974 0H3.125A3.129 3.129 0 000 3.125v5.5a3.129 3.129 0 003.125 3.125h7.849a3.107 3.107 0 002.892-1.938h2.405a.627.627 0 00.442-1.067zm-3.303-.183a.625.625 0 00-.609.485 1.866 1.866 0 01-1.827 1.453H3.125A1.877 1.877 0 011.25 8.626v-5.5c0-1.034.841-1.875 1.875-1.875h7.849c1.034 0 1.875.841 1.875 1.875v3.266c0 .166.066.325.183.442l1.73 1.73H13.41zM28.875 20.25h-7.849a3.107 3.107 0 00-2.892 1.938h-2.405a.627.627 0 00-.442 1.067l2.614 2.614v3.007a3.129 3.129 0 003.125 3.125h7.849A3.129 3.129 0 0032 28.876v-5.5a3.129 3.129 0 00-3.125-3.125zm1.875 8.625a1.877 1.877 0 01-1.875 1.875h-7.849a1.877 1.877 0 01-1.875-1.875v-3.266a.625.625 0 00-.183-.442l-1.73-1.73h1.352a.625.625 0 00.609-.485 1.866 1.866 0 011.827-1.453h7.849c1.034 0 1.875.841 1.875 1.875v5.5z"/><path d="M27.76 24.462a.625.625 0 00-.884 0l-1.661 1.661-.773-.773a.625.625 0 00-.884.884l1.215 1.214a.623.623 0 00.884 0l2.103-2.103a.625.625 0 000-.884zM9.891 4.142a2.171 2.171 0 00-2.009-2.009 2.15 2.15 0 00-1.631.577 2.173 2.173 0 00-.689 1.584.625.625 0 001.25 0c0-.257.104-.495.292-.671s.434-.262.692-.244a.917.917 0 01.135 1.809 1.05 1.05 0 00-.827 1.029v.333a.625.625 0 001.25 0v-.182A2.157 2.157 0 009.891 4.14zm-1.72 4.36a.63.63 0 00-.884 0 .625.625 0 10.884 0zM6.786 28.433a.63.63 0 00-.884 0 .63.63 0 000 .884.63.63 0 00.884 0 .63.63 0 000-.884z"/></symbol><symbol id="guarantee" viewBox="0 0 32 32"><path d="M28.903 13.42h-1.985c-1.869-4.399-6.111-7.226-10.919-7.226S6.949 9.021 5.08 13.42H3.095c-.569 0-1.032.463-1.032 1.032v7.226c0 .569.463 1.032 1.032 1.032H5.08c1.868 4.399 6.111 7.226 10.919 7.226s9.05-2.827 10.919-7.226h1.985c.569 0 1.032-.463 1.032-1.032v-7.226c0-.569-.463-1.032-1.032-1.032zM16 7.226c4.241 0 8.006 2.407 9.794 6.194h-1.162C22.916 10.23 19.641 8.259 16 8.259s-6.916 1.972-8.632 5.161H6.206A10.769 10.769 0 0116 7.226zM9.29 13.42h-.731c.222-.356.466-.693.731-1.008v1.008zm1.033-2.052a8.643 8.643 0 012.065-1.306v3.358h-2.064v-2.052zm3.096-1.691a8.807 8.807 0 012.065-.368v4.111H13.42V9.677zm3.097-.368a8.85 8.85 0 012.064.368v3.742h-2.064V9.308zm3.097.753a8.669 8.669 0 012.064 1.306v2.052h-2.064v-3.358zm3.097 2.349c.265.316.509.652.731 1.008h-.731v-1.008zM16 28.903c-4.241 0-8.006-2.407-9.794-6.194h1.162c1.716 3.19 4.991 5.161 8.632 5.161s6.916-1.971 8.632-5.161h1.162a10.766 10.766 0 01-9.793 6.194zm6.71-6.193h.731a8.889 8.889 0 01-.731 1.009V22.71zm-1.033 2.051a8.657 8.657 0 01-2.064 1.306V22.71h2.064v2.051zm-3.096 1.691a8.81 8.81 0 01-2.064.369V22.71h2.064v3.742zm-3.097.369a8.8 8.8 0 01-2.064-.369V22.71h2.064v4.111zm-3.097-.753a8.694 8.694 0 01-2.065-1.306V22.71h2.064v3.358zm-3.097-2.35a8.8 8.8 0 01-.731-1.009h.731v1.009zm-6.193-2.04v-7.226h25.806l.001 7.226H3.097z"/><path d="M30.452 0H1.549A1.55 1.55 0 00.001 1.548v28.903a1.55 1.55 0 001.548 1.548h28.903A1.55 1.55 0 0032 30.451V1.548A1.55 1.55 0 0030.452 0zM17.548 2.065v2.064h-1.032V2.065h-1.032v2.064h-1.032V2.065H13.42v2.064h-1.032V1.032h7.226v3.097h-1.032V2.065H17.55zm13.42 28.387a.516.516 0 01-.516.516H1.549a.516.516 0 01-.516-.516V1.549c0-.284.231-.516.516-.516h9.806V4.13c0 .569.463 1.032 1.032 1.032h7.226c.569 0 1.032-.463 1.032-1.032V1.033h9.806c.285 0 .516.232.516.516v28.903z"/><path d="M18.064 16.958H16.86l-.371-1.12a.516.516 0 00-.98 0l-.371 1.12h-1.204a.518.518 0 00-.333.91l1.015.857-.386 1.251a.516.516 0 00.807.563l.962-.735.962.736a.513.513 0 00.609.013.517.517 0 00.198-.576l-.386-1.251 1.015-.857a.517.517 0 00-.333-.91zm-1.608 1.2a.517.517 0 00-.16.547l.011.035a.518.518 0 00-.614 0l.011-.035a.517.517 0 00-.16-.547l-.198-.167h.166c.22 0 .415-.139.487-.346a.516.516 0 00.487.346h.166l-.197.167zm-5.617-1.2H9.635l-.371-1.12a.516.516 0 00-.98 0l-.371 1.12H6.709a.518.518 0 00-.333.91l1.015.857-.386 1.251a.516.516 0 00.807.563l.962-.735.962.736a.513.513 0 00.609.013.517.517 0 00.198-.576l-.386-1.251 1.015-.857a.517.517 0 00-.333-.91zm-1.609 1.2a.517.517 0 00-.16.547l.011.035a.518.518 0 00-.614 0l.011-.035a.517.517 0 00-.16-.547l-.198-.167h.166c.22 0 .415-.139.487-.346a.516.516 0 00.487.346h.166l-.197.167zm16.06-1.2h-1.204l-.371-1.12a.516.516 0 00-.98 0l-.371 1.12H21.16a.518.518 0 00-.333.91l1.015.857-.386 1.251a.516.516 0 00.807.563l.962-.735.962.736a.513.513 0 00.609.013.517.517 0 00.198-.576l-.386-1.251 1.015-.857a.517.517 0 00-.333-.91zm-1.608 1.2a.517.517 0 00-.16.547l.011.035a.518.518 0 00-.614 0l.011-.035a.517.517 0 00-.16-.547l-.198-.167h.166c.22 0 .416-.139.487-.346a.516.516 0 00.487.346h.166l-.197.167zm5.221 10.746h1.032v1.032h-1.032v-1.032zm-2.064 0h1.032v1.032h-1.032v-1.032zm-2.065 0h1.032v1.032h-1.032v-1.032z"/></symbol><symbol id="online-education" viewBox="0 0 32 32"><path d="M14.718 11.886a.538.538 0 01-.412-.193.858.858 0 00-1.326 0 .534.534 0 11-.824-.68 1.926 1.926 0 012.972 0 .534.534 0 01-.412.874zm4.715 0a.538.538 0 01-.412-.193.858.858 0 00-1.326 0 .534.534 0 11-.824-.68 1.926 1.926 0 012.972 0 .534.534 0 01-.412.874zM24.972 32H7.029a.533.533 0 01-.533-.533V19.293c0-.885.72-1.604 1.604-1.604h15.801c.885 0 1.604.72 1.604 1.604v12.174a.533.533 0 01-.533.533zM7.563 30.932h16.875V19.293a.538.538 0 00-.537-.537h-15.8a.538.538 0 00-.537.537v11.639z"/><path d="M.912 31.994a.533.533 0 01-.533-.533v-1.699c0-.318.047-.631.139-.933.339-1.587 1.627-5.422 6.308-7.354a.534.534 0 01.407.987c-4.235 1.748-5.38 5.207-5.677 6.612l-.013.05a2.13 2.13 0 00-.098.639v1.699a.53.53 0 01-.532.533zm20.455-13.238a.534.534 0 01-.44-.837c.647-.933.99-2.029.99-3.169V9.017a5.57 5.57 0 00-5.563-5.563h-.711a5.569 5.569 0 00-5.563 5.563v5.733c0 1.115.328 2.191.95 3.11a.533.533 0 11-.885.597 6.598 6.598 0 01-1.133-3.707V9.017a6.637 6.637 0 016.63-6.63h.711a6.637 6.637 0 016.63 6.63v5.733c0 1.36-.408 2.665-1.18 3.778a.52.52 0 01-.435.229zm9.723 13.238a.532.532 0 01-.533-.533v-1.699a2.12 2.12 0 00-.098-.639.92.92 0 01-.013-.05c-.296-1.405-1.442-4.864-5.677-6.612a.534.534 0 01.407-.987c4.681 1.932 5.97 5.767 6.308 7.354.093.302.139.617.139.933v1.699a.528.528 0 01-.532.533z"/><path d="M24.839 9.78a.533.533 0 01-.533-.533v-.231c0-4.383-3.566-7.949-7.949-7.949h-.711c-4.383 0-7.949 3.566-7.949 7.949v.231a.532.532 0 11-1.066 0v-.231C6.631 4.045 10.676 0 15.647 0h.711c4.971 0 9.016 4.044 9.016 9.016v.231a.533.533 0 01-.533.533z"/><path d="M7.858 15.907H6.463c-1.229 0-2.23-1-2.23-2.23v-2.735c0-1.229 1-2.23 2.23-2.23h1.395c1.229 0 2.23 1 2.23 2.23v2.735a2.233 2.233 0 01-2.23 2.23zM6.463 9.78c-.641 0-1.162.522-1.162 1.162v2.735c0 .64.522 1.162 1.162 1.162h1.395c.64 0 1.162-.522 1.162-1.162v-2.735c0-.64-.522-1.162-1.162-1.162H6.463zm19.072 6.127H24.14c-1.229 0-2.23-1-2.23-2.23v-2.735c0-1.229 1-2.23 2.23-2.23h1.395c1.229 0 2.23 1 2.23 2.23v2.735c0 1.23-1 2.23-2.23 2.23zM24.142 9.78c-.64 0-1.162.522-1.162 1.162v2.735c0 .64.522 1.162 1.162 1.162h1.395c.64 0 1.162-.522 1.162-1.162v-2.735c0-.64-.522-1.162-1.162-1.162h-1.395zm-8.141 16.667a2.586 2.586 0 01-2.583-2.583 2.586 2.586 0 012.583-2.583c1.424 0 2.583 1.158 2.583 2.583s-1.159 2.583-2.583 2.583zm0-4.098c-.835 0-1.515.68-1.515 1.515s.68 1.515 1.515 1.515c.835 0 1.515-.68 1.515-1.515s-.68-1.515-1.515-1.515z"/></symbol></defs></svg>