<svg aria-hidden="true" style="position:absolute;width:0;height:0" xmlns="http://www.w3.org/2000/svg" overflow="hidden"><defs><symbol id="icon-money" viewBox="0 0 32 32"><path fill="var(--color1, #fff)" d="M25.631 27.676H.666A.666.666 0 010 27.011v-14.29c0-.368.298-.666.666-.666h24.966c.368 0 .666.298.666.666v14.29a.666.666 0 01-.666.666h-.001zM1.333 26.344h23.631V13.388H1.333v12.956z"/><path fill="var(--color1, #fff)" d="M21.333 25.657H4.968a.666.666 0 01-.666-.666v-.001a1.339 1.339 0 00-1.338-1.337h-.001a.666.666 0 01-.666-.666v-6.239c0-.368.298-.666.666-.666h.001a1.34 1.34 0 001.338-1.339c0-.368.298-.666.666-.666h16.366c.368 0 .666.298.666.666a1.34 1.34 0 001.333 1.339c.368 0 .666.298.666.666v6.24a.666.666 0 01-.666.666h-.001a1.338 1.338 0 00-1.337 1.337.667.667 0 01-.662.667zM5.554 24.323h15.2a2.694 2.694 0 011.894-1.919l.019-.004v-5.072a2.693 2.693 0 01-1.916-1.901l-.004-.019H5.55a2.693 2.693 0 01-1.901 1.916l-.019.004V22.4c.943.251 1.67.98 1.916 1.905l.004.019h.003z"/><path fill="var(--color1, #fff)" d="M13.15 23.541h-.001a3.674 3.674 0 01-.001-7.348 3.675 3.675 0 01.004 7.348h-.003zm0-6.017a2.342 2.342 0 100 4.684 2.342 2.342 0 100-4.684z"/><path fill="var(--color1, #fff)" d="M27.213 23.859a.668.668 0 01-.071-1.33h.003l.77-.08-1.354-12.885L5.1 11.818a.667.667 0 11-.143-1.327h.003l22.123-2.323a.667.667 0 01.733.59v.003l1.492 14.211a.665.665 0 01-.59.733h-.003l-1.433.151-.071.002z"/><path fill="var(--color1, #fff)" d="M30.244 19.898h-.002a.666.666 0 01-.127-1.32l.004-.001.434-.084-2.441-12.724L7.218 9.777a.668.668 0 01-.256-1.311l.004-.001L28.515 4.33a.667.667 0 01.779.524l.001.004 2.692 14.034a.667.667 0 01-.525.78l-.004.001-1.088.208a.682.682 0 01-.125.014h-.001z"/></symbol><symbol id="icon-piggy-bank" viewBox="0 0 32 32"><path fill="var(--color1, #fff)" d="M26.118 16.888a.453.453 0 00-.453.453.576.576 0 01-1.15.001v-.001a.453.453 0 00-.906 0 1.483 1.483 0 001.48 1.481 1.483 1.483 0 001.481-1.48.453.453 0 00-.453-.453z"/><path fill="var(--color1, #fff)" d="M30.369 16.962l-1.275-.409a.537.537 0 01-.343-.344l-.001-.004a8.204 8.204 0 00-1.221-2.405l.016.023a8.75 8.75 0 00-.804-.95c.187-.825.29-1.758.276-2.565-.019-1.154-.25-1.83-.705-2.068-.245-.129-.991-.52-5.031 1.329-.102.047-.19.101-.271.162l.004-.003a18.31 18.31 0 00-.831-.201l-.102-.021a6.158 6.158 0 00.554-2.293v-.02a.453.453 0 00-.905-.022v.001a5.25 5.25 0 01-1.54 3.492 5.228 5.228 0 01-1.871 1.206l-.036.012a13.285 13.285 0 00-3.715.008l.071-.008a5.25 5.25 0 01-1.907-1.218 5.222 5.222 0 01-1.545-3.716v-.016.001c0-1.409.549-2.733 1.545-3.729a5.222 5.222 0 013.716-1.545h.015-.001c1.409 0 2.733.549 3.73 1.545.388.388.717.835.97 1.328l.014.03a.453.453 0 10.807-.41l.001.003a6.206 6.206 0 00-1.152-1.591A6.118 6.118 0 0014.478.753h-.018.001-.016a6.122 6.122 0 00-4.354 1.81 6.12 6.12 0 00-1.81 4.353v.018-.001a6.14 6.14 0 001.811 4.37 6.18 6.18 0 001.09.869 12.93 12.93 0 00-.837.247.453.453 0 00.291.858l-.003.001c1.143-.393 2.46-.619 3.829-.619s2.687.227 3.915.644l-.086-.025a.453.453 0 10.291-.858l-.003-.001a9.752 9.752 0 00-.749-.227l-.089-.02a6.233 6.233 0 001.867-1.815l.014-.023c.401.077.689.143.974.215l-.119-.026c-.005.02-.011.039-.015.059-.221 1.047-.206 1.975.043 2.755a3.297 3.297 0 001.191 1.681l.009.006c.675.494 1.491.707 2.229.707.556 0 1.068-.121 1.444-.334.426-.241.783-.749 1.065-1.512a7.296 7.296 0 011.429 2.537l.014.052c.14.446.489.798.932.94l1.275.408a.801.801 0 01.559.766v2.114a.802.802 0 01-.559.766l-2.053.658a1.4 1.4 0 00-.784.636c-.806 1.394-2.075 2.547-3.77 3.429a.713.713 0 00-.372.496l-.001.004-.658 3.483a.203.203 0 01-.199.165h-2.139a.203.203 0 01-.199-.164v-.001l-.364-1.925a.713.713 0 00-.814-.572l.004-.001a18.964 18.964 0 01-4.897.092.718.718 0 00-.784.572l-.001.005-.346 1.829a.203.203 0 01-.199.165h-2.139a.205.205 0 01-.2-.166v-.001l-.633-3.289a.712.712 0 00-.361-.493l-.004-.002c-2.889-1.542-4.417-4.119-4.417-7.451 0-1.684.368-3.173 1.095-4.425.677-1.169 1.668-2.136 2.942-2.874a.452.452 0 00-.455-.783l.002-.001c-2.473 1.429-3.963 3.636-4.375 6.438l-.13-.012a2.261 2.261 0 00-.166-.904c-.263-.652-.802-1.124-1.375-1.2-.451-.061-.88.131-1.179.524-.432.571-.361 1.022-.226 1.301.229.47.815.802 1.787 1.012-.031.047-.06.086-.091.125l.003-.004c-.574.72-1.252.88-1.692.895a.477.477 0 00-.463.473v.003c0 .254.2.46.454.473.032.002.066.002.101.002.556 0 1.449-.205 2.307-1.282.125-.155.236-.33.324-.518l.007-.016.246.025c-.016.245-.023.494-.023.748 0 1.885.45 3.567 1.335 4.997.818 1.319 1.988 2.398 3.479 3.211l.617 3.197c.098.523.556.903 1.089.903h2.139a1.11 1.11 0 001.09-.903l.313-1.653a20.069 20.069 0 004.884-.102l-.107.013.33 1.743a1.11 1.11 0 001.09.903h2.139a1.11 1.11 0 001.09-.903l.64-3.39c1.809-.956 3.173-2.213 4.054-3.735a.499.499 0 01.272-.225l.003-.001 2.053-.659a1.708 1.708 0 001.189-1.625V18.59c0-.746-.477-1.401-1.188-1.628zm-4.325-5.382c-.175 1.491-.642 2.766-1.111 3.031-.535.303-1.767.361-2.693-.316s-1.235-1.897-.892-3.525a.551.551 0 01.307-.377l.003-.001c2.267-1.038 3.575-1.377 4.06-1.377.073 0 .127.008.164.022.146.155.337 1.039.162 2.543zm-24.33 5.029c-.047-.097.064-.267.134-.359.111-.148.214-.177.291-.177.016 0 .031.002.045.003.208.028.499.258.655.641.036.091.083.24.094.427-.627-.13-1.114-.317-1.22-.535z"/><path fill="var(--color1, #fff)" d="M14.901 6.416V4.794c.559.04.766.296.958.296.24 0 .351-.304.351-.455 0-.391-.766-.559-1.309-.575v-.215c0-.096-.119-.183-.24-.183-.136 0-.232.087-.232.183v.232c-.758.08-1.517.478-1.517 1.484 0 1.022.798 1.309 1.517 1.565v1.875c-.814-.064-1.029-.623-1.293-.623-.2 0-.367.264-.367.455 0 .392.67.926 1.66.942v.247c0 .096.095.184.231.184.12 0 .24-.088.24-.184v-.271c.862-.12 1.452-.663 1.452-1.645 0-1.086-.758-1.437-1.453-1.693zm-.423-.153c-.423-.159-.766-.328-.766-.782 0-.415.32-.615.766-.671v1.453zm.375 2.723V7.302c.392.167.702.39.702.894 0 .455-.271.71-.702.791z"/></symbol><symbol id="icon-remote" viewBox="0 0 32 32"><path fill="var(--color1, #fff)" d="M9.928 25.404a2.438 2.438 0 011.58.716c.445.443.72 1.055.72 1.732v.953a5.765 5.765 0 001.226-3.566v-.017a5.799 5.799 0 00-1.709-4.119 5.8 5.8 0 00-4.117-1.708h-.011.001c-1.61 0-3.068.652-4.124 1.708a5.8 5.8 0 00-1.709 4.119v.006c0 1.347.457 2.587 1.224 3.576v-.952c0-.674.276-1.288.719-1.732a2.447 2.447 0 011.582-.716 2.425 2.425 0 01-.17-.898V22.35a1.595 1.595 0 011.595-1.595h2.897c.258 0 .468.209.468.468v3.281c0 .318-.061.62-.171.9zm-3.851-2.873h3.085v-.838H6.733a.658.658 0 00-.656.656v.181zm3.085.937H6.077v1.036c0 .847.695 1.542 1.542 1.542.848 0 1.543-.695 1.543-1.542v-1.036zm16.76-17.925c-.546.061-1.357.018-2.05-.561a2.024 2.024 0 01-.994.257h-.043.002v.81c0 .423.174.807.454 1.087.278.28.663.453 1.089.453s.811-.173 1.089-.453c.28-.278.453-.662.454-1.087v-.506zm-3.085-1.239c.279.017.576-.09.784-.275a.464.464 0 01.659.047v.001c.523.599 1.236.594 1.643.528v-.712a.656.656 0 00-.194-.463.648.648 0 00-.462-.193h-1.774a.65.65 0 00-.463.193.656.656 0 00-.194.463v.41zM5.953 26.336h-.491c-.416 0-.796.172-1.07.446a1.499 1.499 0 00-.446 1.07v1.91c.405.328.856.604 1.341.815V28.72a.468.468 0 11.936 0v2.174a5.866 5.866 0 002.831-.009l-.04.009V28.7a.469.469 0 01.938 0v.021-.001 1.857a5.788 5.788 0 001.353-.825l-.01.008v-1.909c0-.414-.172-.793-.448-1.07a1.504 1.504 0 00-1.07-.446h-.491c-.437.403-1.023.649-1.666.649s-1.229-.247-1.668-.651l.002.002zM26.86 6.049c0 .315-.059.62-.169.898a2.458 2.458 0 012.299 2.451v.953a5.773 5.773 0 001.226-3.569v-.01a5.815 5.815 0 00-1.709-4.125 5.798 5.798 0 00-4.119-1.71h-.013a5.8 5.8 0 00-4.119 1.71 5.797 5.797 0 00-1.709 4.118v.007c0 1.348.457 2.588 1.224 3.575v-.949c0-.677.276-1.29.721-1.735a2.44 2.44 0 011.573-.716h.007a2.402 2.402 0 01-.171-.898V3.893A1.595 1.595 0 0123.496 2.3h1.77c.44 0 .839.179 1.127.468s.468.688.468 1.124v2.157zm-.813 1.831c-.438.401-1.023.647-1.666.647s-1.229-.246-1.668-.649l.002.002h-.491c-.416 0-.796.171-1.07.445a1.509 1.509 0 00-.446 1.072v1.909c.387.316.829.59 1.304.802l.037.015v-1.858a.469.469 0 01.938 0v2.176a5.852 5.852 0 002.83-.009l-.04.009v-2.176a.469.469 0 11.936 0v1.858a5.887 5.887 0 001.354-.826l-.01.008V9.398c0-.416-.172-.796-.448-1.072a1.503 1.503 0 00-1.07-.445h-.491zM13.136 21.3a14.998 14.998 0 012.365-.27l.028-.001v-4.56h-4.686a20.59 20.59 0 00.29 3.082l-.017-.121a6.767 6.767 0 012.006 1.851l.014.02zm3.332-.272c1.392.043 2.708.276 3.88.659.475-1.524.766-3.307.806-5.218h-4.685v4.559zm4.758.985c.921.386 1.729.872 2.388 1.433a10.777 10.777 0 001.661-2.203l.028-.053a.466.466 0 01.862.252.467.467 0 01-.047.204l.001-.003a11.716 11.716 0 01-4.209 4.326l-.053.029a11.406 11.406 0 01-5.84 1.588H16h.001a11.865 11.865 0 01-2.045-.179l.073.011a6.77 6.77 0 01-1.621 2.599A6.733 6.733 0 017.628 32h-.009a6.751 6.751 0 01-4.787-1.982 6.734 6.734 0 01-1.985-4.782v-.008c0-1.871.759-3.563 1.985-4.788a6.78 6.78 0 011.95-1.363l.042-.017c-.102-.35-.198-.79-.268-1.238l-.008-.064a11.197 11.197 0 01-.135-1.76c0-1.381.242-2.706.686-3.935l-.025.081a.468.468 0 11.881.315l.001-.003c-.332.91-.546 1.961-.593 3.055l-.001.022h4.546c.041-2.027.353-3.92.866-5.545-.921-.386-1.729-.872-2.388-1.432a10.625 10.625 0 00-1.547 2.008l-.027.049a.468.468 0 01-.87-.236c0-.087.024-.169.065-.238l-.001.002a11.731 11.731 0 014.189-4.171l.056-.03a11.398 11.398 0 015.734-1.527c.429 0 .853.023 1.27.069l-.052-.005c.258.027.515.062.769.105a6.79 6.79 0 011.621-2.598A6.726 6.726 0 0124.372 0h.01-.001c1.869 0 3.563.758 4.787 1.984a6.727 6.727 0 011.985 4.779v.009a6.749 6.749 0 01-1.985 4.789 6.793 6.793 0 01-1.949 1.364l-.042.017c.117.425.209.859.276 1.3a11.65 11.65 0 01-.023 3.66l.009-.067c-.11.683-.26 1.284-.454 1.863l.024-.081a.468.468 0 11-.889-.293l-.001.003a10.94 10.94 0 00.399-1.641c.062-.394.103-.802.121-1.218h-4.546c-.041 2.025-.353 3.919-.866 5.543zm1.7 2.076a8.208 8.208 0 00-2.009-1.191c-.162.414-.335.806-.521 1.175-.443.875-.96 1.616-1.533 2.188a10.648 10.648 0 004.076-2.183l-.014.012zm-2.886-1.517a12.658 12.658 0 00-3.553-.606h-.019v4.638c1.182-.229 2.265-1.314 3.093-2.951.172-.339.331-.7.478-1.081zm-4.51-.605a14.845 14.845 0 00-1.971.205l.097-.014c.465.892.737 1.947.737 3.066 0 .297-.019.59-.056.877l.004-.034c.236.168.476.304.725.402.154.06.309.107.466.136v-4.638zM9.072 7.911c.558.46 1.238.863 2.01 1.192.16-.414.333-.807.519-1.175.443-.875.958-1.616 1.533-2.188a10.658 10.658 0 00-4.077 2.182l.014-.012zm2.886 1.517c1.075.351 2.285.564 3.572.606V5.396c-1.182.229-2.265 1.314-3.093 2.954-.172.336-.332.697-.478 1.078zm4.51.607c.358-.011.707-.035 1.045-.073.346-.037.63-.077.911-.127l-.08.012a6.65 6.65 0 01-.739-3.069c0-.297.019-.59.056-.877l-.004.034a3.244 3.244 0 00-.703-.394l-.022-.008a2.495 2.495 0 00-.449-.133l-.017-.003v4.638zm2.396.666c-.408.082-.825.145-1.251.191-.377.041-.76.069-1.145.08v4.56h4.686a20.446 20.446 0 00-.29-3.081l.017.121a6.813 6.813 0 01-2.005-1.85l-.014-.02zm-3.334.271a13.915 13.915 0 01-3.979-.687l.098.028c-.475 1.525-.766 3.306-.806 5.219h4.685v-4.56zm6.374 2.104a21.395 21.395 0 01.188 2.455h4.546a10.213 10.213 0 00-.119-1.208l.008.058c-.057-.379-.135-.75-.23-1.113a6.637 6.637 0 01-1.909.275h-.013a6.735 6.735 0 01-2.515-.484l.045.016zm-11.81 5.848a22.17 22.17 0 01-.188-2.428v-.026H5.36c.036.82.159 1.595.359 2.338l-.017-.075a6.64 6.64 0 011.91-.275h.006c.875 0 1.709.164 2.476.466z"/></symbol><symbol id="icon-work-from-home" viewBox="0 0 32 32"><path fill="var(--color1, #fff)" d="M16.5 11.125a.374.374 0 00.374-.375V9.749a.375.375 0 00-.75 0v1.001c0 .207.168.375.375.375zm-9 10a1.875 1.875 0 000 3.75 1.875 1.875 0 000-3.75zm0 3h-.03a1.126 1.126 0 110-2.252h.032H7.5a1.125 1.125 0 01.001 2.25h-.002zm9.972-11.506a.375.375 0 10-.53-.53.623.623 0 01-.884 0 .375.375 0 00-.53.53 1.374 1.374 0 001.944 0zM18.75 9.5h.02a.5.5 0 000-1.002h-.021.001a.5.5 0 000 1.002zm-4.5 0h.02a.501.501 0 000-1.002h-.021.001a.501.501 0 000 1.002z"/><path fill="var(--color1, #fff)" d="M29.25 22.116a.875.875 0 010-1.75.375.375 0 000-.75 1.626 1.626 0 000 3.25 1.875 1.875 0 010 3.75h-.396a5.398 5.398 0 00-2.032-3.851l-.011-.009-.61-1.526a3.248 3.248 0 00.926-2.255v-1.989c0-.785-.186-1.526-.517-2.182l.013.028a.375.375 0 00-.517-.161l.002-.001-.6.327a2.63 2.63 0 00-.903.743c-.33-.101-.71-.16-1.104-.16s-.773.058-1.131.167l.028-.007a2.618 2.618 0 00-.877-.731l-.015-.007-.611-.332a.374.374 0 00-.513.159l-.001.002c-.091.181-.18.399-.252.623l-.009.033-1.243-.287v-.948a4.934 4.934 0 001.958-2.029l.013-.027a6.117 6.117 0 00-3.589-11.072h-5.757a.376.376 0 00-.344.225l-.001.002-.239.558a5.617 5.617 0 00-.461 2.246c0 1.307.44 2.511 1.179 3.473l-.01-.013v2.384a4.875 4.875 0 002.476 4.241l.024.013v.948l-3.11.717a4.369 4.369 0 00-2.549 1.694l-.009.013H1.732a1.374 1.374 0 00-1.343 1.666l-.002-.009 1.738 8.257V29.5c0 .207.168.375.375.375h18.45c.251.303.626.495 1.046.498h2.007a1.366 1.366 0 001.05-.502l.002-.002 1.945.002a1.875 1.875 0 001.875-1.875v-.629h.375a2.626 2.626 0 00.002-5.25h-.002zm-8.625-5.122c.001-.528.1-1.033.279-1.497l-.01.029.263.143c.319.16.586.408.769.714a.377.377 0 00.459.155l-.003.001a3.14 3.14 0 012.254.007l-.021-.007a.374.374 0 00.456-.154l.001-.002c.186-.309.457-.559.779-.72l.253-.137c.177.469.268.967.269 1.469v1.98a2.886 2.886 0 01-5.749.011l-.001-.011v-1.98zM11.606 2.205l.141-.33h5.508a5.37 5.37 0 014.047 8.897l.005-.006c.043-.254.065-.509.066-.766V7.502a.374.374 0 00-.374-.375 2.696 2.696 0 01-2.629-2.182l-.003-.017a.376.376 0 00-.269-.272l-.003-.001a.404.404 0 00-.386.106 7.992 7.992 0 01-5.514 2.355h-.008a4.913 4.913 0 01-.983-2.961c0-.705.147-1.375.413-1.982l-.012.032zM12.375 10V7.867a8.74 8.74 0 005.443-2.183l-.009.008a3.45 3.45 0 002.801 2.161l.016.002v2.146a4.126 4.126 0 01-8.25.003v-.003zm4.125 4.875a4.82 4.82 0 001.658-.296l-.034.011v.91a1.625 1.625 0 11-3.25 0v-.91a4.765 4.765 0 001.624.285h.001zm-5.315 1.775l2.987-.689c.222 1.099 1.18 1.914 2.328 1.914s2.106-.816 2.326-1.899l.003-.015 1.116.258a4.84 4.84 0 00-.069.773v1.982a3.274 3.274 0 001.09 2.422l.003.003-.338 2.032a.36.36 0 00-.005.059v2.821l-3.066.307-1.321-.566a1.825 1.825 0 00-.689-.151h-.002l-1.512-7.184a1.382 1.382 0 00-1.345-1.091H9.437a3.598 3.598 0 011.727-.971l.024-.005zm-8.31 11.224h10.75v1.25H2.875v-1.25zm10.868-.749H2.805l-1.684-7.997a.625.625 0 01.612-.753h10.956a.628.628 0 01.611.491l.001.004 1.508 7.164c-.497.196-.88.588-1.061 1.078l-.004.013zm.632 2v-1.35a1.125 1.125 0 011.575-1.031l-.007-.003 1.41.604a.365.365 0 00.185.028l3.088-.308v1.933c0 .044.008.084.012.127h-6.262zm13.75-1.131v.001c0 .621-.503 1.124-1.124 1.125h-.002l-1.636-.002c.003-.04.012-.079.012-.121V25.49a.375.375 0 00-.75 0v3.507a.625.625 0 01-.623.625l-.627.002V25.49a.375.375 0 00-.75 0v4.134l-.626-.002a.627.627 0 01-.624-.625v-5.475l.273-1.638a3.755 3.755 0 001.852.481c.78 0 1.505-.235 2.109-.638l-.014.009.557 1.393c.026.065.069.12.122.16l.001.001a4.643 4.643 0 011.849 3.7v1.003z"/><path fill="var(--color1, #fff)" d="M24.75 19a.5.5 0 10.029-.999l-.03.001h.001a.5.5 0 00-.001 1h.001zm-2.5 0h.02a.5.5 0 000-1h-.021.001a.5.5 0 000 1z"/></symbol></defs></svg>